<svg width="32769" height="11250" viewBox="0 0 32769 11250" fill="none" xmlns="http://www.w3.org/2000/svg">
<mask id="path-1-outside-1_271_2" maskUnits="userSpaceOnUse" x="7342.36" y="2494.21" width="12096.5" height="7472.91" fill="black">
<rect fill="white" x="7342.36" y="2494.21" width="12096.5" height="7472.91"/>
<path d="M9764.96 4186.66C9764.96 4050.26 9759.71 3953.21 9749.22 3895.51C9738.73 3837.8 9707.25 3795.83 9654.79 3769.6C9607.57 3743.37 9518.39 3725.01 9387.24 3714.52C9308.55 3709.27 9138.05 3706.65 8875.75 3706.65C8623.94 3706.65 8390.49 3717.14 8175.41 3738.12L7758.35 3761.73V2738.75C8251.47 2644.33 8783.95 2597.11 9355.76 2597.11C9796.43 2597.11 10140 2628.59 10386.6 2691.54C10638.4 2754.49 10827.3 2854.17 10953.2 2990.56C11063.3 3116.47 11134.2 3276.47 11165.6 3470.58C11202.4 3664.68 11220.7 3934.85 11220.7 4281.09V6673.28H9764.96V4186.66ZM8600.34 6728.36C8238.36 6728.36 7970.81 6628.69 7797.69 6429.34C7624.57 6224.75 7538.01 5917.85 7538.01 5508.66C7538.01 5256.85 7556.37 5054.88 7593.1 4902.74C7629.82 4745.36 7692.77 4622.08 7781.95 4532.9C7871.14 4438.47 7994.42 4372.89 8151.8 4336.17C8309.18 4294.2 8516.4 4273.22 8773.45 4273.22L9434.46 4288.96V4989.3H9355.76C9235.11 4989.3 9156.42 4991.93 9119.69 4997.17C9014.77 5002.42 8959.69 5052.26 8954.44 5146.68C8949.2 5178.16 8946.57 5243.74 8946.57 5343.41C8946.57 5422.1 8949.2 5482.43 8954.44 5524.4C8964.93 5566.37 8980.67 5600.47 9001.66 5626.7C9027.89 5663.42 9067.23 5684.4 9119.69 5689.65C9193.14 5700.14 9271.83 5705.39 9355.76 5705.39H9434.46V6508.03C9319.04 6597.21 9195.76 6654.92 9064.61 6681.15C8938.7 6712.63 8783.95 6728.36 8600.34 6728.36ZM14703.7 3738.12C14572.6 3717.14 14383.7 3706.65 14137.1 3706.65C13974.5 3706.65 13859.1 3717.14 13790.9 3738.12V2597.11C14163.4 2602.36 14549 2649.57 14947.6 2738.75V3761.73L14703.7 3738.12ZM13735.8 6736.23C13326.6 6736.23 13001.4 6686.4 12760.1 6586.72C12518.7 6487.05 12340.4 6340.16 12225 6146.05C12120 5978.18 12051.8 5781.46 12020.4 5555.88C11994.1 5330.3 11981 5036.52 11981 4674.54C11981 4344.04 11994.1 4068.62 12020.4 3848.29C12046.6 3627.96 12101.7 3433.85 12185.6 3265.98C12285.3 3071.88 12434.8 2922.37 12634.1 2817.45C12838.7 2707.28 13114.2 2639.08 13460.4 2612.85V4666.67C13460.4 4897.5 13465.6 5070.62 13476.1 5186.03C13491.9 5301.44 13520.7 5390.63 13562.7 5453.58C13609.9 5516.53 13675.5 5561.12 13759.4 5587.35C13848.6 5613.58 13974.5 5626.7 14137.1 5626.7C14415.2 5626.7 14606.7 5618.83 14711.6 5603.09L14979.1 5571.61V6594.59C14590.9 6689.02 14176.5 6736.23 13735.8 6736.23ZM17417.3 4273.22H17968.1C17968.1 3979.44 17939.3 3790.58 17881.6 3706.65C17850.1 3659.43 17808.1 3630.58 17755.7 3620.09C17703.2 3604.35 17627.1 3596.48 17527.5 3596.48H17417.3V2597.11H17527.5C17978.6 2597.11 18324.9 2633.83 18566.2 2707.28C18812.7 2780.72 18993.7 2901.38 19109.1 3069.25C19214.1 3216.14 19277 3405 19298 3635.83C19324.2 3866.65 19337.4 4212.89 19337.4 4674.54V4989.3H17417.3V4273.22ZM17684.8 6736.23C17202.2 6736.23 16821.9 6696.89 16543.8 6618.2C16271 6534.26 16066.4 6403.11 15930.1 6224.74C15809.4 6067.36 15730.7 5873.26 15694 5642.44C15657.3 5406.36 15638.9 5083.73 15638.9 4674.54C15638.9 4296.83 15652 3997.8 15678.2 3777.47C15704.5 3551.89 15759.6 3360.41 15843.5 3203.03C15937.9 3029.91 16082.2 2896.14 16276.3 2801.71C16475.6 2702.03 16745.8 2639.08 17086.8 2612.85V4989.3C17086.8 5167.67 17094.7 5296.2 17110.4 5374.89C17126.1 5448.33 17162.9 5503.42 17220.6 5540.14C17283.5 5582.11 17380.6 5605.71 17511.7 5610.96C17679.6 5621.45 17858 5626.7 18046.8 5626.7C18382.6 5626.7 18626.5 5618.83 18778.6 5603.09L19180 5571.61V6586.72C18970.1 6649.67 18681.6 6691.64 18314.4 6712.63C18136 6728.36 17926.2 6736.23 17684.8 6736.23ZM7443.14 7487.27H8029.11V9840.66H7443.14V7487.27ZM8358.52 9077.31C8358.52 8965.39 8357.47 8891.49 8355.36 8855.59C8351.13 8796.47 8345.85 8757.4 8339.52 8738.4C8331.07 8717.28 8316.29 8704.61 8295.17 8700.39C8274.06 8694.05 8240.27 8690.89 8193.82 8690.89H8162.14V8304.46C8246.61 8236.89 8354.3 8203.1 8485.22 8203.1C8675.26 8203.1 8803.02 8261.17 8868.48 8377.31C8898.04 8427.99 8918.1 8490.28 8928.66 8564.19C8939.22 8635.98 8944.49 8724.67 8944.49 8830.25V9840.66H8358.52V9077.31ZM10131.9 8839.75C10131.9 8784.85 10129.8 8745.79 10125.6 8722.56C10121.4 8699.33 10108.7 8682.44 10087.6 8671.88C10068.6 8661.32 10032.7 8653.93 9979.89 8649.71C9948.22 8647.6 9879.59 8646.54 9774.01 8646.54C9672.65 8646.54 9578.69 8650.76 9492.11 8659.21L9324.24 8668.71V8256.95C9522.73 8218.94 9737.06 8199.94 9967.22 8199.94C10144.6 8199.94 10282.9 8212.61 10382.2 8237.94C10483.5 8263.28 10559.5 8303.4 10610.2 8358.31C10654.6 8408.99 10683.1 8473.39 10695.7 8551.52C10710.5 8629.65 10717.9 8738.4 10717.9 8877.76V9840.66H10131.9V8839.75ZM9663.15 9862.83C9517.45 9862.83 9409.76 9822.71 9340.08 9742.47C9270.39 9660.11 9235.55 9536.59 9235.55 9371.88C9235.55 9270.52 9242.94 9189.23 9257.72 9127.99C9272.5 9064.64 9297.84 9015.02 9333.74 8979.12C9369.64 8941.11 9419.26 8914.72 9482.61 8899.93C9545.96 8883.04 9629.37 8874.6 9732.84 8874.6L9998.9 8880.93V9162.83H9967.22C9918.66 9162.83 9886.98 9163.89 9872.2 9166C9829.97 9168.11 9807.8 9188.17 9805.69 9226.18C9803.57 9238.85 9802.52 9265.24 9802.52 9305.36C9802.52 9337.04 9803.57 9361.32 9805.69 9378.21C9809.91 9395.11 9816.24 9408.83 9824.69 9419.39C9835.25 9434.17 9851.09 9442.62 9872.2 9444.73C9901.76 9448.95 9933.44 9451.07 9967.22 9451.07H9998.9V9774.14C9952.44 9810.04 9902.82 9833.27 9850.03 9843.82C9799.35 9856.49 9737.06 9862.83 9663.15 9862.83ZM12119.9 8659.21C12067.1 8650.76 11991 8646.54 11891.8 8646.54C11826.3 8646.54 11779.9 8650.76 11752.4 8659.21V8199.94C11902.4 8202.05 12057.6 8221.05 12218 8256.95V8668.71L12119.9 8659.21ZM11730.3 9866C11565.6 9866 11434.6 9845.94 11337.5 9805.82C11240.4 9765.7 11168.6 9706.57 11122.1 9628.44C11079.9 9560.87 11052.4 9481.68 11039.8 9390.88C11029.2 9300.09 11023.9 9181.83 11023.9 9036.13C11023.9 8903.1 11029.2 8792.24 11039.8 8703.55C11050.3 8614.87 11072.5 8536.74 11106.3 8469.17C11146.4 8391.04 11206.6 8330.86 11286.8 8288.62C11369.2 8244.28 11480 8216.83 11619.4 8206.27V9032.97C11619.4 9125.88 11621.5 9195.56 11625.7 9242.02C11632.1 9288.47 11643.7 9324.37 11660.6 9349.71C11679.6 9375.05 11706 9393 11739.8 9403.55C11775.7 9414.11 11826.3 9419.39 11891.8 9419.39C12003.7 9419.39 12080.8 9416.22 12123 9409.89L12230.7 9397.22V9808.98C12074.5 9846.99 11907.6 9866 11730.3 9866ZM12543.8 7487.27H13129.8V9840.66H12543.8V7487.27ZM13262.8 9378.21V8706.72L13538.4 8225.27H14156L13680.9 8991.79L14165.5 9840.66H13525.7L13262.8 9378.21ZM14283.2 8988.62L14992.8 7661.47H15683.2L14698.2 9419.39H14283.2V8988.62ZM15293.7 9419.39H14850.2L15122.6 8934.78H15296.8L15534.4 8500.84H15914.5V8934.78H16180.5V9419.39H15914.5V9840.66H15293.7V9419.39ZM16463.4 9324.37H17103.2V9840.66H16463.4V9324.37ZM18601.6 8751.07C18601.6 8567.36 18600.6 8446.99 18598.5 8389.98C18594.2 8301.29 18585.8 8239 18573.1 8203.1C18558.3 8167.21 18535.1 8145.03 18503.4 8136.59C18473.9 8126.03 18423.2 8120.75 18351.4 8120.75C18319.7 8120.75 18280.7 8122.86 18234.2 8127.09V7639.3C18246.9 7637.19 18265.9 7636.14 18291.2 7636.14H18351.4C18573.1 7636.14 18744.2 7655.14 18864.5 7693.15C18984.9 7729.05 19073.6 7789.23 19130.6 7873.69C19183.4 7951.82 19216.1 8054.23 19228.8 8180.93C19241.4 8307.63 19247.8 8497.67 19247.8 8751.07C19247.8 8979.12 19242.5 9152.27 19231.9 9270.52C19223.5 9388.77 19200.3 9488.02 19162.3 9568.26C19120 9656.95 19054.6 9724.52 18965.9 9770.97C18879.3 9815.32 18757.9 9843.82 18601.6 9856.49V8751.07ZM18351.4 9866C18131.8 9866 17960.8 9848.05 17838.3 9812.15C17717.9 9774.14 17629.2 9711.85 17572.2 9625.27C17519.4 9547.14 17486.7 9445.79 17474 9321.2C17461.4 9196.62 17455 9006.57 17455 8751.07C17455 8523.01 17459.2 8349.86 17467.7 8231.61C17478.2 8113.36 17502.5 8014.11 17540.5 7933.87C17582.8 7845.18 17647.2 7778.67 17733.8 7734.33C17822.4 7687.87 17944.9 7658.31 18101.2 7645.64V8751.07C18101.2 8932.66 18102.2 9051.97 18104.3 9108.98C18108.6 9193.45 18118.1 9256.8 18132.8 9299.03C18147.6 9334.93 18169.8 9358.15 18199.4 9368.71C18228.9 9377.16 18279.6 9381.38 18351.4 9381.38H18414.7C18429.5 9381.38 18447.5 9379.27 18468.6 9375.05V9862.83C18455.9 9864.94 18436.9 9866 18411.6 9866H18351.4Z"/>
</mask>
<path d="M9764.96 4186.66C9764.96 4050.26 9759.71 3953.21 9749.22 3895.51C9738.73 3837.8 9707.25 3795.83 9654.79 3769.6C9607.57 3743.37 9518.39 3725.01 9387.24 3714.52C9308.55 3709.27 9138.05 3706.65 8875.75 3706.65C8623.94 3706.65 8390.49 3717.14 8175.41 3738.12L7758.35 3761.73V2738.75C8251.47 2644.33 8783.95 2597.11 9355.76 2597.11C9796.43 2597.11 10140 2628.59 10386.6 2691.54C10638.4 2754.49 10827.3 2854.17 10953.2 2990.56C11063.3 3116.47 11134.2 3276.47 11165.6 3470.58C11202.4 3664.68 11220.7 3934.85 11220.7 4281.09V6673.28H9764.96V4186.66ZM8600.34 6728.36C8238.36 6728.36 7970.81 6628.69 7797.69 6429.34C7624.57 6224.75 7538.01 5917.85 7538.01 5508.66C7538.01 5256.85 7556.37 5054.88 7593.1 4902.74C7629.82 4745.36 7692.77 4622.08 7781.95 4532.9C7871.14 4438.47 7994.42 4372.89 8151.8 4336.17C8309.18 4294.2 8516.4 4273.22 8773.45 4273.22L9434.46 4288.96V4989.3H9355.76C9235.11 4989.3 9156.42 4991.93 9119.69 4997.17C9014.77 5002.42 8959.69 5052.26 8954.44 5146.68C8949.2 5178.16 8946.57 5243.74 8946.57 5343.41C8946.57 5422.1 8949.2 5482.43 8954.44 5524.4C8964.93 5566.37 8980.67 5600.47 9001.66 5626.7C9027.89 5663.42 9067.23 5684.4 9119.69 5689.65C9193.14 5700.14 9271.83 5705.39 9355.76 5705.39H9434.46V6508.03C9319.04 6597.21 9195.76 6654.92 9064.61 6681.15C8938.7 6712.63 8783.95 6728.36 8600.34 6728.36ZM14703.7 3738.12C14572.6 3717.14 14383.7 3706.65 14137.1 3706.65C13974.5 3706.65 13859.1 3717.14 13790.9 3738.12V2597.11C14163.4 2602.36 14549 2649.57 14947.6 2738.75V3761.73L14703.7 3738.12ZM13735.8 6736.23C13326.6 6736.23 13001.4 6686.4 12760.1 6586.72C12518.7 6487.05 12340.4 6340.16 12225 6146.05C12120 5978.18 12051.8 5781.46 12020.4 5555.88C11994.1 5330.3 11981 5036.52 11981 4674.54C11981 4344.04 11994.1 4068.62 12020.4 3848.29C12046.6 3627.96 12101.7 3433.85 12185.6 3265.98C12285.3 3071.88 12434.8 2922.37 12634.1 2817.45C12838.7 2707.28 13114.2 2639.08 13460.4 2612.85V4666.67C13460.4 4897.5 13465.6 5070.62 13476.1 5186.03C13491.9 5301.44 13520.7 5390.63 13562.7 5453.58C13609.9 5516.53 13675.5 5561.12 13759.4 5587.35C13848.6 5613.58 13974.5 5626.7 14137.1 5626.7C14415.2 5626.7 14606.7 5618.83 14711.6 5603.09L14979.1 5571.61V6594.59C14590.9 6689.02 14176.5 6736.23 13735.8 6736.23ZM17417.3 4273.22H17968.1C17968.1 3979.44 17939.3 3790.58 17881.6 3706.65C17850.1 3659.43 17808.1 3630.58 17755.7 3620.09C17703.2 3604.35 17627.1 3596.48 17527.5 3596.48H17417.3V2597.11H17527.5C17978.6 2597.11 18324.9 2633.83 18566.2 2707.28C18812.7 2780.72 18993.7 2901.38 19109.1 3069.25C19214.1 3216.14 19277 3405 19298 3635.83C19324.2 3866.65 19337.4 4212.89 19337.4 4674.54V4989.3H17417.3V4273.22ZM17684.8 6736.23C17202.2 6736.23 16821.9 6696.89 16543.8 6618.2C16271 6534.26 16066.4 6403.11 15930.1 6224.74C15809.4 6067.36 15730.7 5873.26 15694 5642.44C15657.3 5406.36 15638.9 5083.73 15638.9 4674.54C15638.9 4296.83 15652 3997.8 15678.2 3777.47C15704.5 3551.89 15759.6 3360.41 15843.5 3203.03C15937.9 3029.91 16082.2 2896.14 16276.3 2801.71C16475.6 2702.03 16745.8 2639.08 17086.8 2612.85V4989.3C17086.8 5167.67 17094.7 5296.2 17110.4 5374.89C17126.1 5448.33 17162.9 5503.42 17220.6 5540.14C17283.5 5582.11 17380.6 5605.71 17511.7 5610.96C17679.6 5621.45 17858 5626.7 18046.8 5626.7C18382.6 5626.7 18626.5 5618.83 18778.6 5603.09L19180 5571.61V6586.72C18970.1 6649.67 18681.6 6691.64 18314.4 6712.63C18136 6728.36 17926.2 6736.23 17684.8 6736.23ZM7443.14 7487.27H8029.11V9840.66H7443.14V7487.27ZM8358.52 9077.31C8358.52 8965.39 8357.47 8891.49 8355.36 8855.59C8351.13 8796.47 8345.85 8757.4 8339.52 8738.4C8331.07 8717.28 8316.29 8704.61 8295.17 8700.39C8274.06 8694.05 8240.27 8690.89 8193.82 8690.89H8162.14V8304.46C8246.61 8236.89 8354.3 8203.1 8485.22 8203.1C8675.26 8203.1 8803.02 8261.17 8868.48 8377.31C8898.04 8427.99 8918.1 8490.28 8928.66 8564.19C8939.22 8635.98 8944.49 8724.67 8944.49 8830.25V9840.66H8358.52V9077.31ZM10131.9 8839.75C10131.9 8784.85 10129.8 8745.79 10125.6 8722.56C10121.4 8699.33 10108.7 8682.44 10087.6 8671.88C10068.6 8661.32 10032.7 8653.93 9979.89 8649.71C9948.22 8647.6 9879.59 8646.54 9774.01 8646.54C9672.65 8646.54 9578.69 8650.76 9492.11 8659.21L9324.24 8668.71V8256.95C9522.73 8218.94 9737.06 8199.94 9967.22 8199.94C10144.6 8199.94 10282.9 8212.61 10382.2 8237.94C10483.5 8263.28 10559.5 8303.4 10610.2 8358.31C10654.6 8408.99 10683.1 8473.39 10695.7 8551.52C10710.5 8629.65 10717.9 8738.4 10717.9 8877.76V9840.66H10131.9V8839.75ZM9663.15 9862.83C9517.45 9862.83 9409.76 9822.71 9340.08 9742.47C9270.39 9660.11 9235.55 9536.59 9235.55 9371.88C9235.55 9270.52 9242.94 9189.23 9257.72 9127.99C9272.5 9064.64 9297.84 9015.02 9333.74 8979.12C9369.64 8941.11 9419.26 8914.72 9482.61 8899.93C9545.96 8883.04 9629.37 8874.6 9732.84 8874.6L9998.9 8880.93V9162.83H9967.22C9918.66 9162.83 9886.98 9163.89 9872.2 9166C9829.97 9168.11 9807.8 9188.17 9805.69 9226.18C9803.57 9238.85 9802.52 9265.24 9802.52 9305.36C9802.52 9337.04 9803.57 9361.32 9805.69 9378.21C9809.91 9395.11 9816.24 9408.83 9824.69 9419.39C9835.25 9434.17 9851.09 9442.62 9872.2 9444.73C9901.76 9448.95 9933.44 9451.07 9967.22 9451.07H9998.9V9774.14C9952.44 9810.04 9902.82 9833.27 9850.03 9843.82C9799.35 9856.49 9737.06 9862.83 9663.15 9862.83ZM12119.9 8659.21C12067.1 8650.76 11991 8646.54 11891.8 8646.54C11826.3 8646.54 11779.9 8650.76 11752.4 8659.21V8199.94C11902.4 8202.05 12057.6 8221.05 12218 8256.95V8668.71L12119.9 8659.21ZM11730.3 9866C11565.6 9866 11434.6 9845.94 11337.5 9805.82C11240.4 9765.7 11168.6 9706.57 11122.1 9628.44C11079.9 9560.87 11052.4 9481.68 11039.8 9390.88C11029.2 9300.09 11023.9 9181.83 11023.9 9036.13C11023.9 8903.1 11029.2 8792.24 11039.8 8703.55C11050.3 8614.87 11072.5 8536.74 11106.3 8469.17C11146.4 8391.04 11206.6 8330.86 11286.8 8288.62C11369.2 8244.28 11480 8216.83 11619.4 8206.27V9032.97C11619.4 9125.88 11621.5 9195.56 11625.7 9242.02C11632.1 9288.47 11643.7 9324.37 11660.6 9349.71C11679.6 9375.05 11706 9393 11739.8 9403.55C11775.7 9414.11 11826.3 9419.39 11891.8 9419.39C12003.7 9419.39 12080.8 9416.22 12123 9409.89L12230.7 9397.22V9808.98C12074.5 9846.99 11907.6 9866 11730.3 9866ZM12543.8 7487.27H13129.8V9840.66H12543.8V7487.27ZM13262.8 9378.21V8706.72L13538.4 8225.27H14156L13680.9 8991.79L14165.5 9840.66H13525.7L13262.8 9378.21ZM14283.2 8988.62L14992.8 7661.47H15683.2L14698.2 9419.39H14283.2V8988.62ZM15293.7 9419.39H14850.2L15122.6 8934.78H15296.8L15534.4 8500.84H15914.5V8934.78H16180.5V9419.39H15914.5V9840.66H15293.7V9419.39ZM16463.4 9324.37H17103.2V9840.66H16463.4V9324.37ZM18601.6 8751.07C18601.6 8567.36 18600.6 8446.99 18598.5 8389.98C18594.2 8301.29 18585.8 8239 18573.1 8203.1C18558.3 8167.21 18535.1 8145.03 18503.4 8136.59C18473.9 8126.03 18423.2 8120.75 18351.4 8120.75C18319.7 8120.75 18280.7 8122.86 18234.2 8127.09V7639.3C18246.9 7637.19 18265.9 7636.14 18291.2 7636.14H18351.4C18573.1 7636.14 18744.2 7655.14 18864.5 7693.15C18984.9 7729.05 19073.6 7789.23 19130.6 7873.69C19183.4 7951.82 19216.1 8054.23 19228.8 8180.93C19241.4 8307.63 19247.8 8497.67 19247.8 8751.07C19247.8 8979.12 19242.5 9152.27 19231.9 9270.52C19223.5 9388.77 19200.3 9488.02 19162.3 9568.26C19120 9656.95 19054.6 9724.52 18965.9 9770.97C18879.3 9815.32 18757.9 9843.82 18601.6 9856.49V8751.07ZM18351.4 9866C18131.8 9866 17960.8 9848.05 17838.3 9812.15C17717.9 9774.14 17629.2 9711.85 17572.2 9625.27C17519.4 9547.14 17486.7 9445.79 17474 9321.2C17461.4 9196.62 17455 9006.57 17455 8751.07C17455 8523.01 17459.2 8349.86 17467.7 8231.61C17478.2 8113.36 17502.5 8014.11 17540.5 7933.87C17582.8 7845.18 17647.2 7778.67 17733.8 7734.33C17822.4 7687.87 17944.9 7658.31 18101.2 7645.64V8751.07C18101.2 8932.66 18102.2 9051.97 18104.3 9108.98C18108.6 9193.45 18118.1 9256.8 18132.8 9299.03C18147.6 9334.93 18169.8 9358.15 18199.4 9368.71C18228.9 9377.16 18279.6 9381.38 18351.4 9381.38H18414.7C18429.5 9381.38 18447.5 9379.27 18468.6 9375.05V9862.83C18455.9 9864.94 18436.9 9866 18411.6 9866H18351.4Z" fill="black"/>
<path d="M9654.79 3769.6L9605.91 3857.58L9607.83 3858.64L9609.78 3859.62L9654.79 3769.6ZM9387.24 3714.52L9395.27 3614.2L9394.6 3614.14L9393.94 3614.1L9387.24 3714.52ZM8175.41 3738.12L8181.09 3838.6L8183.14 3838.49L8185.18 3838.29L8175.41 3738.12ZM7758.35 3761.73H7657.71V3868.23L7764.03 3862.21L7758.35 3761.73ZM7758.35 2738.75L7739.42 2639.91L7657.71 2655.56V2738.75H7758.35ZM10386.6 2691.54L10361.7 2789.05L10362 2789.11L10362.2 2789.18L10386.6 2691.54ZM10953.2 2990.56L11028.9 2924.29L11028 2923.29L11027.1 2922.3L10953.2 2990.56ZM11165.6 3470.58L11066.3 3486.69L11066.5 3487.99L11066.8 3489.29L11165.6 3470.58ZM11220.7 6673.28V6773.92H11321.4V6673.28H11220.7ZM9764.96 6673.28H9664.31V6773.92H9764.96V6673.28ZM7797.69 6429.34L7720.86 6494.35L7721.28 6494.84L7721.71 6495.33L7797.69 6429.34ZM7593.1 4902.74L7690.93 4926.36L7691.02 4925.99L7691.1 4925.61L7593.1 4902.74ZM7781.95 4532.9L7853.12 4604.06L7854.13 4603.05L7855.12 4602L7781.95 4532.9ZM8151.8 4336.17L8174.67 4434.18L8176.21 4433.82L8177.73 4433.41L8151.8 4336.17ZM8773.45 4273.22L8775.85 4172.61L8774.65 4172.58H8773.45V4273.22ZM9434.46 4288.96H9535.1V4190.69L9436.85 4188.35L9434.46 4288.96ZM9434.46 4989.3V5089.94H9535.1V4989.3H9434.46ZM9119.69 4997.17L9124.72 5097.69L9129.34 5097.46L9133.93 5096.8L9119.69 4997.17ZM8954.44 5146.68L9053.71 5163.23L9054.62 5157.78L9054.93 5152.27L8954.44 5146.68ZM8954.44 5524.4L8854.58 5536.88L8855.33 5542.91L8856.81 5548.81L8954.44 5524.4ZM9001.66 5626.7L9083.55 5568.2L9081.96 5565.97L9080.24 5563.83L9001.66 5626.7ZM9119.69 5689.65L9133.93 5590.02L9131.82 5589.72L9129.71 5589.51L9119.69 5689.65ZM9434.46 5705.39H9535.1V5604.75H9434.46V5705.39ZM9434.46 6508.03L9495.99 6587.67L9535.1 6557.45V6508.03H9434.46ZM9064.61 6681.15L9044.87 6582.46L9042.52 6582.93L9040.2 6583.51L9064.61 6681.15ZM9865.6 4186.66C9865.6 4050.03 9860.5 3944.96 9848.23 3877.5L9650.2 3913.51C9658.92 3961.46 9664.31 4050.5 9664.31 4186.66H9865.6ZM9848.23 3877.5C9832.08 3788.63 9780.59 3719.98 9699.8 3679.59L9609.78 3859.62C9633.91 3871.68 9645.37 3886.97 9650.2 3913.51L9848.23 3877.5ZM9703.66 3681.63C9635.29 3643.64 9525.82 3624.64 9395.27 3614.2L9379.22 3814.84C9510.96 3825.38 9579.85 3843.1 9605.91 3857.58L9703.66 3681.63ZM9393.94 3614.1C9311.26 3608.59 9137.24 3606.01 8875.75 3606.01V3807.29C9138.87 3807.29 9305.84 3809.95 9380.55 3814.93L9393.94 3614.1ZM8875.75 3606.01C8621.2 3606.01 8384.45 3616.61 8165.63 3637.96L8185.18 3838.29C8396.54 3817.67 8626.69 3807.29 8875.75 3807.29V3606.01ZM8169.72 3637.64L7752.66 3661.25L7764.03 3862.21L8181.09 3838.6L8169.72 3637.64ZM7858.99 3761.73V2738.75H7657.71V3761.73H7858.99ZM7777.27 2837.6C8263.37 2744.52 8789.44 2697.75 9355.76 2697.75V2496.47C8778.45 2496.47 8239.57 2544.14 7739.42 2639.91L7777.27 2837.6ZM9355.76 2697.75C9793.19 2697.75 10127.1 2729.15 10361.7 2789.05L10411.5 2594.03C10153 2528.02 9799.67 2496.47 9355.76 2496.47V2697.75ZM10362.2 2789.18C10602.3 2849.19 10770.9 2941.51 10879.2 3058.83L11027.1 2922.3C10883.6 2766.82 10674.6 2659.79 10411 2593.9L10362.2 2789.18ZM10877.4 3056.84C10973.2 3166.23 11037.3 3307.87 11066.3 3486.69L11265 3454.47C11231 3245.07 11153.5 3066.71 11028.9 2924.29L10877.4 3056.84ZM11066.8 3489.29C11101.8 3674.29 11120.1 3937.2 11120.1 4281.09H11321.4C11321.4 3932.5 11303 3655.07 11264.5 3451.87L11066.8 3489.29ZM11120.1 4281.09V6673.28H11321.4V4281.09H11120.1ZM11220.7 6572.64H9764.96V6773.92H11220.7V6572.64ZM9865.6 6673.28V4186.66H9664.31V6673.28H9865.6ZM8600.34 6627.72C8256.19 6627.72 8021.34 6533.38 7873.68 6363.35L7721.71 6495.33C7920.28 6724 8220.52 6829 8600.34 6829V6627.72ZM7874.52 6364.33C7723.07 6185.35 7638.65 5906.06 7638.65 5508.66H7437.37C7437.37 5929.64 7526.07 6264.14 7720.86 6494.35L7874.52 6364.33ZM7638.65 5508.66C7638.65 5260.62 7656.85 5067.54 7690.93 4926.36L7495.27 4879.13C7455.9 5042.22 7437.37 5253.09 7437.37 5508.66H7638.65ZM7691.1 4925.61C7724.74 4781.44 7780.47 4676.71 7853.12 4604.06L7710.79 4461.73C7605.07 4567.45 7534.89 4709.28 7495.09 4879.88L7691.1 4925.61ZM7855.12 4602C7927.76 4525.09 8031.82 4467.51 8174.67 4434.18L8128.93 4238.16C7957.02 4278.28 7814.51 4351.85 7708.79 4463.8L7855.12 4602ZM8177.73 4433.41C8323.24 4394.61 8520.73 4373.86 8773.45 4373.86V4172.58C8512.07 4172.58 8295.12 4193.8 8125.87 4238.93L8177.73 4433.41ZM8771.06 4373.83L9432.06 4389.57L9436.85 4188.35L8775.85 4172.61L8771.06 4373.83ZM9333.81 4288.96V4989.3H9535.1V4288.96H9333.81ZM9434.46 4888.66H9355.76V5089.94H9434.46V4888.66ZM9355.76 4888.66C9236.74 4888.66 9150.58 4891.1 9105.46 4897.54L9133.93 5096.8C9162.25 5092.76 9233.47 5089.94 9355.76 5089.94V4888.66ZM9114.67 4896.66C9048.45 4899.97 8982.83 4918.02 8932.17 4963.86C8879.99 5011.07 8857.63 5075 8853.96 5141.1L9054.93 5152.27C9056.5 5123.94 9064.31 5115.74 9067.21 5113.11C9071.63 5109.12 9086.01 5099.62 9124.72 5097.69L9114.67 4896.66ZM8855.17 5130.14C8848.31 5171.28 8845.93 5245.4 8845.93 5343.41H9047.21C9047.21 5242.07 9050.08 5185.04 9053.71 5163.23L8855.17 5130.14ZM8845.93 5343.41C8845.93 5423.38 8848.55 5488.65 8854.58 5536.88L9054.31 5511.92C9049.84 5476.21 9047.21 5420.82 9047.21 5343.41H8845.93ZM8856.81 5548.81C8869.84 5600.93 8890.84 5649.28 8923.07 5689.57L9080.24 5563.83C9070.51 5551.66 9060.03 5531.81 9052.08 5499.99L8856.81 5548.81ZM8919.76 5685.19C8965.73 5749.55 9033.73 5782.2 9109.68 5789.79L9129.71 5589.51C9100.73 5586.61 9090.04 5577.29 9083.55 5568.2L8919.76 5685.19ZM9105.46 5789.28C9184.18 5800.52 9267.67 5806.03 9355.76 5806.03V5604.75C9275.98 5604.75 9202.09 5599.76 9133.93 5590.02L9105.46 5789.28ZM9355.76 5806.03H9434.46V5604.75H9355.76V5806.03ZM9333.81 5705.39V6508.03H9535.1V5705.39H9333.81ZM9372.92 6428.4C9268.65 6508.96 9159.47 6559.55 9044.87 6582.46L9084.35 6779.84C9232.06 6750.29 9369.43 6685.46 9495.99 6587.67L9372.92 6428.4ZM9040.2 6583.51C8924.81 6612.36 8778.82 6627.72 8600.34 6627.72V6829C8789.07 6829 8952.6 6812.89 9089.02 6778.79L9040.2 6583.51ZM14703.7 3738.12L14687.8 3837.5L14690.9 3838L14694 3838.3L14703.7 3738.12ZM13790.9 3738.12H13690.3V3874.39L13820.5 3834.31L13790.9 3738.12ZM13790.9 2597.11L13792.3 2496.48L13690.3 2495.04V2597.11H13790.9ZM14947.6 2738.75H15048.3V2658.14L14969.6 2640.54L14947.6 2738.75ZM14947.6 3761.73L14938 3861.9L15048.3 3872.58V3761.73H14947.6ZM12760.1 6586.72L12721.6 6679.74L12760.1 6586.72ZM12225 6146.05L12311.5 6094.62L12310.9 6093.66L12310.3 6092.72L12225 6146.05ZM12020.4 5555.88L11920.4 5567.5L11920.5 5568.64L11920.7 5569.78L12020.4 5555.88ZM12020.4 3848.29L11920.4 3836.39L12020.4 3848.29ZM12185.6 3265.98L12096.1 3220.01L12095.8 3220.49L12095.6 3220.97L12185.6 3265.98ZM12634.1 2817.45L12681 2906.5L12681.4 2906.28L12681.9 2906.06L12634.1 2817.45ZM13460.4 2612.85H13561V2504.3L13452.8 2512.5L13460.4 2612.85ZM13476.1 5186.03L13375.9 5195.14L13376.1 5197.39L13376.4 5199.63L13476.1 5186.03ZM13562.7 5453.58L13479 5509.4L13480.5 5511.73L13482.2 5513.96L13562.7 5453.58ZM13759.4 5587.35L13729.4 5683.41L13730.2 5683.66L13731 5683.9L13759.4 5587.35ZM14711.6 5603.09L14699.8 5503.14L14698.2 5503.33L14696.6 5503.56L14711.6 5603.09ZM14979.1 5571.61H15079.8V5458.44L14967.4 5471.66L14979.1 5571.61ZM14979.1 6594.59L15002.9 6692.38L15079.8 6673.69V6594.59H14979.1ZM14719.6 3638.75C14580.5 3616.49 14385.3 3606.01 14137.1 3606.01V3807.29C14382.1 3807.29 14564.6 3817.79 14687.8 3837.5L14719.6 3638.75ZM14137.1 3606.01C13974 3606.01 13845.2 3616.12 13761.3 3641.93L13820.5 3834.31C13873 3818.16 13975 3807.29 14137.1 3807.29V3606.01ZM13891.5 3738.12V2597.11H13690.3V3738.12H13891.5ZM13789.5 2697.74C14154.4 2702.88 14533.1 2749.15 14925.7 2836.97L14969.6 2640.54C14564.8 2549.99 14172.3 2501.83 13792.3 2496.48L13789.5 2697.74ZM14847 2738.75V3761.73H15048.3V2738.75H14847ZM14957.3 3661.56L14713.4 3637.95L14694 3838.3L14938 3861.9L14957.3 3661.56ZM13735.8 6635.59C13333.2 6635.59 13022.7 6586.31 12798.5 6493.7L12721.6 6679.74C12980.1 6786.48 13320.1 6836.87 13735.8 6836.87V6635.59ZM12798.5 6493.7C12574 6400.98 12414.1 6267.21 12311.5 6094.62L12138.5 6197.49C12266.7 6413.11 12463.5 6573.11 12721.6 6679.74L12798.5 6493.7ZM12310.3 6092.72C12213.9 5938.51 12149.9 5755.64 12120 5541.97L11920.7 5569.78C11953.8 5807.27 12026.2 6017.85 12139.6 6199.39L12310.3 6092.72ZM12120.3 5544.25C12094.7 5324.1 12081.7 5034.62 12081.7 4674.54H11880.4C11880.4 5038.42 11893.5 5336.49 11920.4 5567.5L12120.3 5544.25ZM12081.7 4674.54C12081.7 4346.3 12094.7 4075.17 12120.3 3860.19L11920.4 3836.39C11893.6 4062.08 11880.4 4341.79 11880.4 4674.54H12081.7ZM12120.3 3860.19C12145.4 3649.33 12197.7 3466.78 12275.6 3310.99L12095.6 3220.97C12005.6 3400.93 11947.8 3606.58 11920.4 3836.39L12120.3 3860.19ZM12275.1 3311.95C12365 3136.88 12499.3 3002.12 12681 2906.5L12587.3 2728.39C12370.2 2842.61 12205.5 3006.87 12096.1 3220.01L12275.1 3311.95ZM12681.9 2906.06C12869.5 2805.03 13129.5 2738.85 13468 2713.2L13452.8 2512.5C13098.8 2539.31 12808 2609.53 12586.4 2728.83L12681.9 2906.06ZM13359.8 2612.85V4666.67H13561V2612.85H13359.8ZM13359.8 4666.67C13359.8 4898.19 13365 5075.02 13375.9 5195.14L13576.4 5176.92C13566.3 5066.21 13561 4896.81 13561 4666.67H13359.8ZM13376.4 5199.63C13393.2 5322.77 13425.2 5428.76 13479 5509.4L13646.4 5397.75C13616.3 5352.49 13590.5 5280.11 13575.9 5172.43L13376.4 5199.63ZM13482.2 5513.96C13543.5 5595.77 13627.8 5651.66 13729.4 5683.41L13789.4 5491.29C13723.2 5470.59 13676.3 5437.29 13643.2 5393.19L13482.2 5513.96ZM13731 5683.9C13833.8 5714.14 13970.9 5727.34 14137.1 5727.34V5526.06C13978.1 5526.06 13863.4 5513.02 13787.8 5490.8L13731 5683.9ZM14137.1 5727.34C14414.7 5727.34 14613.2 5719.61 14726.5 5702.62L14696.6 5503.56C14600.1 5518.04 14415.7 5526.06 14137.1 5526.06V5727.34ZM14723.3 5703.04L14990.9 5671.56L14967.4 5471.66L14699.8 5503.14L14723.3 5703.04ZM14878.5 5571.61V6594.59H15079.8V5571.61H14878.5ZM14955.3 6496.8C14575.7 6589.15 14169.3 6635.59 13735.8 6635.59V6836.87C14183.7 6836.87 14606.2 6788.89 15002.9 6692.38L14955.3 6496.8ZM17417.3 4273.22V4172.58H17316.7V4273.22H17417.3ZM17968.1 4273.22V4373.86H18068.8V4273.22H17968.1ZM17881.6 3706.65L17797.8 3762.47L17798.2 3763.07L17798.6 3763.66L17881.6 3706.65ZM17755.7 3620.09L17726.8 3716.48L17731.3 3717.85L17735.9 3718.77L17755.7 3620.09ZM17417.3 3596.48H17316.7V3697.12H17417.3V3596.48ZM17417.3 2597.11V2496.47H17316.7V2597.11H17417.3ZM18566.2 2707.28L18536.9 2803.56L18537.2 2803.65L18537.5 2803.73L18566.2 2707.28ZM19109.1 3069.25L19026.2 3126.27L19026.7 3127.02L19027.3 3127.75L19109.1 3069.25ZM19298 3635.83L19197.8 3644.94L19197.9 3646.07L19198 3647.19L19298 3635.83ZM19337.4 4989.3V5089.94H19438V4989.3H19337.4ZM17417.3 4989.3H17316.7V5089.94H17417.3V4989.3ZM16543.8 6618.2L16514.2 6714.39L16515.3 6714.72L16516.4 6715.03L16543.8 6618.2ZM15930.1 6224.75L16010 6163.61L16010 6163.56L16009.9 6163.51L15930.1 6224.75ZM15694 5642.44L15594.5 5657.9L15594.6 5658.08L15594.6 5658.25L15694 5642.44ZM15678.2 3777.47L15778.2 3789.37L15778.2 3789.23L15778.2 3789.09L15678.2 3777.47ZM15843.5 3203.03L15755.1 3154.84L15754.9 3155.25L15754.7 3155.67L15843.5 3203.03ZM16276.3 2801.71L16320.3 2892.21L16320.8 2891.97L16321.3 2891.72L16276.3 2801.71ZM17086.8 2612.85H17187.4V2504.17L17079.1 2512.51L17086.8 2612.85ZM17110.4 5374.89L17011.7 5394.62L17011.9 5395.3L17012 5395.97L17110.4 5374.89ZM17220.6 5540.14L17276.4 5456.4L17275.5 5455.81L17274.6 5455.23L17220.6 5540.14ZM17511.7 5610.96L17518 5510.51L17516.9 5510.44L17515.8 5510.4L17511.7 5610.96ZM18778.6 5603.09L18770.8 5502.76L18769.5 5502.86L18768.3 5502.98L18778.6 5603.09ZM19180 5571.61H19280.6V5462.77L19172.1 5471.28L19180 5571.61ZM19180 6586.72L19208.9 6683.12L19280.6 6661.6V6586.72H19180ZM18314.4 6712.63L18308.6 6612.15L18307.1 6612.24L18305.5 6612.38L18314.4 6712.63ZM17417.3 4373.86H17968.1V4172.58H17417.3V4373.86ZM18068.8 4273.22C18068.8 4123.64 18061.5 3997.42 18046 3896.04C18030.9 3797.52 18006.6 3710.81 17964.5 3649.63L17798.6 3763.66C17814.3 3786.42 17833.2 3836.11 17847 3926.44C17860.4 4013.93 17867.5 4129.02 17867.5 4273.22H18068.8ZM17965.3 3650.82C17920 3582.9 17855.8 3537.47 17775.4 3521.4L17735.9 3718.77C17760.5 3723.69 17780.2 3735.97 17797.8 3762.47L17965.3 3650.82ZM17784.6 3523.69C17718 3503.72 17630.3 3495.84 17527.5 3495.84V3697.12C17624 3697.12 17688.4 3704.98 17726.8 3716.48L17784.6 3523.69ZM17527.5 3495.84H17417.3V3697.12H17527.5V3495.84ZM17517.9 3596.48V2597.11H17316.7V3596.48H17517.9ZM17417.3 2697.75H17527.5V2496.47H17417.3V2697.75ZM17527.5 2697.75C17975.2 2697.75 18309.7 2734.43 18536.9 2803.56L18595.5 2611C18340 2533.24 17982 2496.47 17527.5 2496.47V2697.75ZM18537.5 2803.73C18767.9 2872.37 18926.9 2981.88 19026.2 3126.27L19192.1 3012.24C19060.5 2820.89 18857.6 2689.07 18594.9 2610.83L18537.5 2803.73ZM19027.3 3127.75C19119.2 3256.52 19178 3426.95 19197.8 3644.94L19398.2 3626.72C19376.1 3383.05 19308.9 3175.77 19191 3010.76L19027.3 3127.75ZM19198 3647.19C19223.6 3872.16 19236.7 4213.76 19236.7 4674.54H19438C19438 4212.02 19424.9 3861.15 19398 3624.46L19198 3647.19ZM19236.7 4674.54V4989.3H19438V4674.54H19236.7ZM19337.4 4888.66H17417.3V5089.94H19337.4V4888.66ZM17517.9 4989.3V4273.22H17316.7V4989.3H17517.9ZM17684.8 6635.59C17206.2 6635.59 16836.4 6596.4 16571.2 6521.36L16516.4 6715.03C16807.4 6797.37 17198.3 6836.87 17684.8 6836.87V6635.59ZM16573.4 6522.01C16315.2 6442.56 16130.6 6321.32 16010 6163.61L15850.1 6285.88C16002.3 6484.9 16226.9 6625.97 16514.2 6714.39L16573.4 6522.01ZM16009.9 6163.51C15901.1 6021.6 15827.9 5843.88 15793.4 5626.62L15594.6 5658.25C15633.5 5902.65 15717.7 6113.13 15850.2 6285.98L16009.9 6163.51ZM15793.4 5626.97C15757.9 5398.36 15739.5 5081.65 15739.5 4674.54H15538.3C15538.3 5085.82 15556.7 5414.37 15594.5 5657.9L15793.4 5626.97ZM15739.5 4674.54C15739.5 4298.46 15752.6 4003.96 15778.2 3789.37L15578.3 3765.57C15551.4 3991.64 15538.3 4295.19 15538.3 4674.54H15739.5ZM15778.2 3789.09C15803.4 3572.75 15855.7 3394.08 15932.3 3250.39L15754.7 3155.67C15663.5 3326.74 15605.6 3531.03 15578.3 3765.85L15778.2 3789.09ZM15931.8 3251.22C16015.3 3098.21 16143.2 2978.39 16320.3 2892.21L16232.3 2711.21C16021.2 2813.88 15860.5 2961.61 15755.1 3154.84L15931.8 3251.22ZM16321.3 2891.72C16504.5 2800.13 16760.3 2738.9 17094.5 2713.19L17079.1 2512.51C16731.3 2539.26 16446.8 2603.94 16231.3 2711.69L16321.3 2891.72ZM16986.2 2612.85V4989.3H17187.4V2612.85H16986.2ZM16986.2 4989.3C16986.2 5168.27 16993.9 5305.41 17011.7 5394.62L17209.1 5355.15C17195.5 5286.98 17187.4 5167.06 17187.4 4989.3H16986.2ZM17012 5395.97C17032.8 5492.93 17083.7 5572.36 17166.5 5625.04L17274.6 5455.23C17242 5434.47 17219.5 5403.74 17208.8 5353.8L17012 5395.97ZM17164.8 5623.88C17250.7 5681.15 17370 5706.01 17507.7 5711.52L17515.8 5510.4C17391.2 5505.42 17316.4 5483.06 17276.4 5456.4L17164.8 5623.88ZM17505.5 5711.4C17675.7 5722.04 17856.1 5727.34 18046.8 5727.34V5526.06C17859.8 5526.06 17683.6 5520.86 17518 5510.51L17505.5 5711.4ZM18046.8 5727.34C18383 5727.34 18631.3 5719.51 18789 5703.2L18768.3 5502.98C18621.7 5518.15 18382.2 5526.06 18046.8 5526.06V5727.34ZM18786.5 5703.42L19187.8 5671.95L19172.1 5471.28L18770.8 5502.76L18786.5 5703.42ZM19079.3 5571.61V6586.72H19280.6V5571.61H19079.3ZM19151.1 6490.33C18952.1 6550 18672.5 6591.36 18308.6 6612.15L18320.1 6813.1C18690.7 6791.93 18988.1 6749.34 19208.9 6683.12L19151.1 6490.33ZM18305.5 6612.38C18130.9 6627.78 17924.2 6635.59 17684.8 6635.59V6836.87C17928.2 6836.87 18141.1 6828.95 18323.2 6812.88L18305.5 6612.38ZM7443.14 7487.27V7386.63H7342.5V7487.27H7443.14ZM8029.11 7487.27H8129.75V7386.63H8029.11V7487.27ZM8029.11 9840.66V9941.3H8129.75V9840.66H8029.11ZM7443.14 9840.66H7342.5V9941.3H7443.14V9840.66ZM8355.36 8855.59L8455.82 8849.68L8455.79 8849.05L8455.74 8848.42L8355.36 8855.59ZM8339.52 8738.4L8434.99 8706.57L8434.06 8703.77L8432.96 8701.02L8339.52 8738.4ZM8295.17 8700.39L8266.26 8796.78L8270.79 8798.14L8275.44 8799.07L8295.17 8700.39ZM8162.14 8690.88H8061.5V8791.53H8162.14V8690.88ZM8162.14 8304.46L8099.27 8225.87L8061.5 8256.09V8304.46H8162.14ZM8868.48 8377.31L8780.8 8426.73L8781.17 8427.38L8781.55 8428.02L8868.48 8377.31ZM8928.66 8564.19L8829.03 8578.42L8829.06 8578.63L8829.09 8578.83L8928.66 8564.19ZM8944.49 9840.66V9941.3H9045.14V9840.66H8944.49ZM8358.52 9840.66H8257.88V9941.3H8358.52V9840.66ZM7443.14 7587.91H8029.11V7386.63H7443.14V7587.91ZM7928.47 7487.27V9840.66H8129.75V7487.27H7928.47ZM8029.11 9740.02H7443.14V9941.3H8029.11V9740.02ZM7543.78 9840.66V7487.27H7342.5V9840.66H7543.78ZM8459.16 9077.31C8459.16 8965.97 8458.14 8889.05 8455.82 8849.68L8254.89 8861.5C8256.8 8893.93 8257.88 8964.82 8257.88 9077.31H8459.16ZM8455.74 8848.42C8451.66 8791.36 8445.99 8739.56 8434.99 8706.57L8244.04 8770.22C8243.85 8769.63 8244.4 8771.25 8245.39 8776.15C8246.31 8780.78 8247.37 8787.12 8248.49 8795.43C8250.75 8812.1 8252.94 8834.37 8254.97 8862.76L8455.74 8848.42ZM8432.96 8701.02C8412.73 8650.45 8371.56 8613.03 8314.91 8601.7L8275.44 8799.07C8270.92 8798.17 8263.66 8795.51 8256.6 8789.47C8249.74 8783.59 8246.87 8777.75 8246.08 8775.77L8432.96 8701.02ZM8324.09 8603.99C8288.02 8593.17 8241.72 8590.24 8193.82 8590.24V8791.53C8238.82 8791.53 8260.1 8794.94 8266.26 8796.78L8324.09 8603.99ZM8193.82 8590.24H8162.14V8791.53H8193.82V8590.24ZM8262.78 8690.88V8304.46H8061.5V8690.88H8262.78ZM8225.01 8383.05C8288.1 8332.57 8372.18 8303.74 8485.22 8303.74V8102.46C8336.42 8102.46 8205.11 8141.2 8099.27 8225.87L8225.01 8383.05ZM8485.22 8303.74C8656.17 8303.74 8740.28 8354.83 8780.8 8426.73L8956.15 8327.89C8865.75 8167.51 8694.36 8102.46 8485.22 8102.46V8303.74ZM8781.55 8428.02C8803.04 8464.87 8819.83 8514.02 8829.03 8578.42L9028.29 8549.96C9016.37 8466.55 8993.04 8391.11 8955.41 8326.6L8781.55 8428.02ZM8829.09 8578.83C8838.69 8644.14 8843.85 8727.58 8843.85 8830.25H9045.14C9045.14 8721.76 9039.74 8627.83 9028.23 8549.55L8829.09 8578.83ZM8843.85 8830.25V9840.66H9045.14V8830.25H8843.85ZM8944.49 9740.02H8358.52V9941.3H8944.49V9740.02ZM8459.16 9840.66V9077.31H8257.88V9840.66H8459.16ZM10087.6 8671.88L10038.7 8759.86L10040.6 8760.92L10042.6 8761.9L10087.6 8671.88ZM9979.89 8649.71L9987.92 8549.39L9987.25 8549.34L9986.59 8549.29L9979.89 8649.71ZM9492.11 8659.21L9497.8 8759.69L9499.84 8759.58L9501.88 8759.38L9492.11 8659.21ZM9324.24 8668.71H9223.6V8775.21L9329.93 8769.19L9324.24 8668.71ZM9324.24 8256.95L9305.31 8158.1L9223.6 8173.75V8256.95H9324.24ZM10382.2 8237.94L10357.3 8335.46L10357.5 8335.52L10357.7 8335.58L10382.2 8237.94ZM10610.2 8358.31L10685.9 8292.03L10685.1 8291.03L10684.2 8290.04L10610.2 8358.31ZM10695.7 8551.52L10596.4 8567.63L10596.6 8568.93L10596.8 8570.23L10695.7 8551.52ZM10717.9 9840.66V9941.3H10818.5V9840.66H10717.9ZM10131.9 9840.66H10031.3V9941.3H10131.9V9840.66ZM9340.08 9742.47L9263.25 9807.48L9263.67 9807.97L9264.09 9808.46L9340.08 9742.47ZM9257.72 9127.99L9355.55 9151.6L9355.64 9151.23L9355.73 9150.86L9257.72 9127.99ZM9333.74 8979.12L9404.9 9050.28L9405.92 9049.27L9406.91 9048.22L9333.74 8979.12ZM9482.61 8899.94L9505.48 8997.94L9507.02 8997.58L9508.54 8997.18L9482.61 8899.94ZM9732.84 8874.6L9735.23 8773.98L9734.03 8773.96H9732.84V8874.6ZM9998.9 8880.93H10099.5V8782.66L10001.3 8780.32L9998.9 8880.93ZM9998.9 9162.83V9263.47H10099.5V9162.83H9998.9ZM9872.2 9166L9877.23 9266.51L9881.85 9266.28L9886.43 9265.63L9872.2 9166ZM9805.69 9226.18L9904.96 9242.72L9905.86 9237.28L9906.17 9231.76L9805.69 9226.18ZM9805.69 9378.21L9705.82 9390.7L9706.58 9396.73L9708.05 9402.62L9805.69 9378.21ZM9824.69 9419.39L9906.58 9360.89L9904.99 9358.66L9903.28 9356.52L9824.69 9419.39ZM9872.2 9444.73L9886.43 9345.1L9884.33 9344.8L9882.22 9344.59L9872.2 9444.73ZM9998.9 9451.07H10099.5V9350.43H9998.9V9451.07ZM9998.9 9774.14L10060.4 9853.78L10099.5 9823.56V9774.14H9998.9ZM9850.03 9843.82L9830.29 9745.14L9827.94 9745.61L9825.62 9746.19L9850.03 9843.82ZM10232.6 8839.75C10232.6 8784.62 10230.6 8737.54 10224.6 8704.56L10026.6 8740.56C10029 8754.04 10031.3 8785.09 10031.3 8839.75H10232.6ZM10224.6 8704.56C10214.7 8650.16 10182 8606.59 10132.6 8581.86L10042.6 8761.9C10040.8 8761.02 10036.5 8758.32 10032.4 8752.85C10028.3 8747.39 10026.9 8742.49 10026.6 8740.56L10224.6 8704.56ZM10136.5 8583.91C10096.3 8561.59 10040.1 8553.57 9987.92 8549.39L9971.87 8750.03C9995.78 8751.94 10013.6 8754.41 10026.1 8756.99C10039.9 8759.83 10042.2 8761.79 10038.7 8759.86L10136.5 8583.91ZM9986.59 8549.29C9950.93 8546.91 9878.78 8545.9 9774.01 8545.9V8747.18C9880.41 8747.18 9945.51 8748.28 9973.2 8750.13L9986.59 8549.29ZM9774.01 8545.9C9669.91 8545.9 9572.64 8550.24 9482.34 8559.05L9501.88 8759.38C9584.73 8751.29 9675.4 8747.18 9774.01 8747.18V8545.9ZM9486.42 8558.73L9318.55 8568.23L9329.93 8769.19L9497.8 8759.69L9486.42 8558.73ZM9424.88 8668.71V8256.95H9223.6V8668.71H9424.88ZM9343.17 8355.79C9534.63 8319.13 9742.55 8300.58 9967.22 8300.58V8099.3C9731.56 8099.3 9510.83 8118.75 9305.31 8158.1L9343.17 8355.79ZM9967.22 8300.58C10141.4 8300.58 10270 8313.17 10357.3 8335.46L10407.1 8140.43C10295.9 8112.04 10147.8 8099.3 9967.22 8099.3V8300.58ZM10357.7 8335.58C10447.4 8357.99 10503.2 8390.75 10536.3 8426.57L10684.2 8290.04C10615.9 8216.06 10519.7 8168.58 10406.6 8140.31L10357.7 8335.58ZM10534.5 8424.58C10564.4 8458.75 10586.2 8504.79 10596.4 8567.63L10795.1 8535.41C10779.9 8441.99 10744.7 8359.22 10685.9 8292.03L10534.5 8424.58ZM10596.8 8570.23C10609.9 8639.26 10617.3 8740.75 10617.3 8877.76H10818.5C10818.5 8736.05 10811.1 8620.04 10794.6 8532.81L10596.8 8570.23ZM10617.3 8877.76V9840.66H10818.5V8877.76H10617.3ZM10717.9 9740.02H10131.9V9941.3H10717.9V9740.02ZM10232.6 9840.66V8839.75H10031.3V9840.66H10232.6ZM9663.15 9762.19C9535.29 9762.19 9460.29 9727.4 9416.06 9676.48L9264.09 9808.46C9359.23 9918.01 9499.62 9963.47 9663.15 9963.47V9762.19ZM9416.9 9677.46C9368.89 9620.72 9336.19 9524.8 9336.19 9371.88H9134.91C9134.91 9548.37 9171.89 9699.51 9263.25 9807.48L9416.9 9677.46ZM9336.19 9371.88C9336.19 9274.29 9343.42 9201.89 9355.55 9151.6L9159.89 9104.37C9142.47 9176.57 9134.91 9266.76 9134.91 9371.88H9336.19ZM9355.73 9150.86C9367.43 9100.72 9385.54 9069.64 9404.9 9050.28L9262.58 8907.96C9210.14 8960.39 9177.58 9028.56 9159.71 9105.12L9355.73 9150.86ZM9406.91 9048.22C9426.26 9027.73 9456.66 9009.33 9505.48 8997.94L9459.74 8801.93C9381.86 8820.1 9313.02 8854.49 9260.57 8910.02L9406.91 9048.22ZM9508.54 8997.18C9560.02 8983.45 9633.7 8975.24 9732.84 8975.24V8773.96C9625.03 8773.96 9531.9 8782.63 9456.68 8802.69L9508.54 8997.18ZM9730.44 8975.21L9996.5 8981.54L10001.3 8780.32L9735.23 8773.98L9730.44 8975.21ZM9898.26 8880.93V9162.83H10099.5V8880.93H9898.26ZM9998.9 9062.19H9967.22V9263.47H9998.9V9062.19ZM9967.22 9062.19C9920.3 9062.19 9881.15 9063.06 9857.97 9066.37L9886.43 9265.63C9886.41 9265.63 9886.56 9265.61 9886.88 9265.57C9887.21 9265.53 9887.67 9265.48 9888.27 9265.42C9889.51 9265.3 9891.16 9265.17 9893.3 9265.02C9897.62 9264.73 9903.26 9264.45 9910.4 9264.21C9924.7 9263.73 9943.54 9263.47 9967.22 9263.47V9062.19ZM9867.18 9065.48C9832.31 9067.23 9790.59 9077.05 9756.38 9108C9720.65 9140.32 9707.31 9182.71 9705.2 9220.6L9906.17 9231.76C9906.19 9231.37 9906.08 9234.61 9903.88 9239.87C9901.51 9245.52 9897.42 9251.82 9891.42 9257.26C9879.38 9268.15 9869.87 9266.88 9877.23 9266.51L9867.18 9065.48ZM9706.41 9209.63C9702.69 9231.97 9701.88 9266.91 9701.88 9305.36H9903.16C9903.16 9286.04 9903.42 9270.86 9903.87 9259.5C9904.37 9247.09 9904.99 9242.54 9904.96 9242.72L9706.41 9209.63ZM9701.88 9305.36C9701.88 9338.31 9702.93 9367.54 9705.82 9390.7L9905.55 9365.73C9904.22 9355.1 9903.16 9335.76 9903.16 9305.36H9701.88ZM9708.05 9402.62C9714.81 9429.67 9726.41 9457.64 9746.1 9482.26L9903.28 9356.52C9904.7 9358.29 9905.13 9359.33 9904.98 9359C9904.81 9358.64 9904.13 9357.05 9903.32 9353.81L9708.05 9402.62ZM9742.8 9477.89C9773.09 9520.3 9817.58 9540.41 9862.19 9544.87L9882.22 9344.59C9882.39 9344.61 9886.27 9345.03 9891.85 9348.01C9897.79 9351.18 9902.96 9355.81 9906.58 9360.89L9742.8 9477.89ZM9857.97 9544.36C9892.81 9549.34 9929.28 9551.71 9967.22 9551.71V9350.43C9937.59 9350.43 9910.72 9348.57 9886.43 9345.1L9857.97 9544.36ZM9967.22 9551.71H9998.9V9350.43H9967.22V9551.71ZM9898.26 9451.07V9774.14H10099.5V9451.07H9898.26ZM9937.36 9694.51C9902.05 9721.79 9866.53 9737.89 9830.29 9745.14L9869.77 9942.51C9939.11 9928.64 10002.8 9898.29 10060.4 9853.78L9937.36 9694.51ZM9825.62 9746.19C9785.46 9756.23 9731.93 9762.19 9663.15 9762.19V9963.47C9742.18 9963.47 9813.24 9956.76 9874.44 9941.46L9825.62 9746.19ZM12119.9 8659.21L12104 8758.59L12107 8759.08L12110.2 8759.38L12119.9 8659.21ZM11752.4 8659.21H11651.8V8795.47L11782 8755.4L11752.4 8659.21ZM11752.4 8199.94L11753.9 8099.31L11651.8 8097.87V8199.94H11752.4ZM12218 8256.95H12318.7V8176.33L12240 8158.74L12218 8256.95ZM12218 8668.71L12208.4 8768.89L12318.7 8779.56V8668.71H12218ZM11337.5 9805.82L11299.1 9898.83L11337.5 9805.82ZM11122.1 9628.44L11208.6 9577.01L11208.1 9576.05L11207.5 9575.1L11122.1 9628.44ZM11039.8 9390.88L10939.8 9402.51L10939.9 9403.65L10940.1 9404.79L11039.8 9390.88ZM11039.8 8703.55L10939.8 8691.66L11039.8 8703.55ZM11106.3 8469.17L11016.8 8423.19L11016.5 8423.67L11016.3 8424.16L11106.3 8469.17ZM11286.8 8288.62L11333.7 8377.68L11334.1 8377.46L11334.5 8377.23L11286.8 8288.62ZM11619.4 8206.27H11720V8097.72L11611.8 8105.92L11619.4 8206.27ZM11625.7 9242.02L11525.5 9251.13L11525.7 9253.38L11526 9255.61L11625.7 9242.02ZM11660.6 9349.71L11576.8 9405.53L11578.4 9407.86L11580.1 9410.09L11660.6 9349.71ZM11739.8 9403.55L11709.7 9499.61L11710.6 9499.87L11711.4 9500.11L11739.8 9403.55ZM12123 9409.89L12111.3 9309.94L12109.7 9310.12L12108.1 9310.36L12123 9409.89ZM12230.7 9397.22H12331.4V9284.05L12219 9297.27L12230.7 9397.22ZM12230.7 9808.98L12254.5 9906.77L12331.4 9888.08V9808.98H12230.7ZM12135.8 8559.83C12075 8550.12 11992.7 8545.9 11891.8 8545.9V8747.18C11989.4 8747.18 12059.1 8751.41 12104 8758.59L12135.8 8559.83ZM11891.8 8545.9C11825.8 8545.9 11766 8549.74 11722.8 8563.02L11782 8755.4C11793.8 8751.79 11826.9 8747.18 11891.8 8747.18V8545.9ZM11853.1 8659.21V8199.94H11651.8V8659.21H11853.1ZM11751 8300.57C11893.4 8302.57 12041.7 8320.63 12196.1 8355.16L12240 8158.74C12073.4 8121.47 11911.3 8101.52 11753.9 8099.31L11751 8300.57ZM12117.4 8256.95V8668.71H12318.7V8256.95H12117.4ZM12227.7 8568.54L12129.5 8559.04L12110.2 8759.38L12208.4 8768.89L12227.7 8568.54ZM11730.3 9765.36C11572.1 9765.36 11455.9 9745.85 11375.9 9712.8L11299.1 9898.83C11413.3 9946.02 11559 9966.64 11730.3 9966.64V9765.36ZM11375.9 9712.8C11295.6 9679.63 11242.3 9633.62 11208.6 9577.01L11035.6 9679.87C11094.9 9779.52 11185.1 9851.76 11299.1 9898.83L11375.9 9712.8ZM11207.5 9575.1C11173.8 9521.2 11150.4 9455.87 11139.4 9376.98L10940.1 9404.79C10954.4 9507.5 10986 9600.54 11036.8 9681.78L11207.5 9575.1ZM11139.7 9379.26C11129.8 9293.89 11124.6 9179.94 11124.6 9036.13H10923.3C10923.3 9183.73 10928.6 9306.28 10939.8 9402.51L11139.7 9379.26ZM11124.6 9036.13C11124.6 8905.36 11129.8 8798.79 11139.7 8715.45L10939.8 8691.66C10928.6 8785.7 10923.3 8900.85 10923.3 9036.13H11124.6ZM11139.7 8715.45C11149.1 8636.24 11168.6 8569.66 11196.3 8514.17L11016.3 8424.16C10976.4 8503.81 10951.5 8593.49 10939.8 8691.66L11139.7 8715.45ZM11195.8 8515.14C11226.2 8456.04 11271.1 8410.61 11333.7 8377.68L11240 8199.56C11142 8251.1 11066.6 8326.03 11016.8 8423.19L11195.8 8515.14ZM11334.5 8377.23C11399.9 8342.03 11495.4 8316.6 11627 8306.62L11611.8 8105.92C11464.7 8117.06 11338.4 8146.53 11239.1 8200.01L11334.5 8377.23ZM11518.8 8206.27V9032.97H11720V8206.27H11518.8ZM11518.8 9032.97C11518.8 9126.56 11520.9 9199.96 11525.5 9251.13L11726 9232.9C11722.2 9191.16 11720 9125.19 11720 9032.97H11518.8ZM11526 9255.61C11533.4 9309.8 11548.2 9362.51 11576.8 9405.53L11744.3 9293.88C11739.2 9286.23 11730.7 9267.14 11725.5 9228.42L11526 9255.61ZM11580.1 9410.09C11613.2 9454.29 11658.3 9483.53 11709.7 9499.61L11769.8 9307.49C11753.7 9302.46 11746 9295.8 11741.1 9289.32L11580.1 9410.09ZM11711.4 9500.11C11760.9 9514.67 11822.8 9520.03 11891.8 9520.03V9318.75C11829.9 9318.75 11790.4 9313.55 11768.2 9307L11711.4 9500.11ZM11891.8 9520.03C12003.2 9520.03 12087.3 9517.01 12138 9509.42L12108.1 9310.36C12074.2 9315.44 12004.2 9318.75 11891.8 9318.75V9520.03ZM12134.8 9509.84L12242.5 9497.17L12219 9297.27L12111.3 9309.94L12134.8 9509.84ZM12130.1 9397.22V9808.98H12331.4V9397.22H12130.1ZM12206.9 9711.19C12059.2 9747.13 11900.4 9765.36 11730.3 9765.36V9966.64C11914.8 9966.64 12089.7 9946.86 12254.5 9906.77L12206.9 9711.19ZM12543.8 7487.27V7386.63H12443.2V7487.27H12543.8ZM13129.8 7487.27H13230.4V7386.63H13129.8V7487.27ZM13129.8 9840.66V9941.3H13230.4V9840.66H13129.8ZM12543.8 9840.66H12443.2V9941.3H12543.8V9840.66ZM13262.8 9378.21H13162.2V9404.82L13175.3 9427.95L13262.8 9378.21ZM13262.8 8706.72L13175.5 8656.73L13162.2 8679.96V8706.72H13262.8ZM13538.4 8225.28V8124.63H13480L13451 8175.28L13538.4 8225.28ZM14156 8225.28L14241.5 8278.3L14336.8 8124.63H14156V8225.28ZM13680.9 8991.79L13595.4 8938.77L13563.8 8989.67L13593.5 9041.69L13680.9 8991.79ZM14165.5 9840.66V9941.3H14338.9L14252.9 9790.76L14165.5 9840.66ZM13525.7 9840.66L13438.2 9890.4L13467.1 9941.3H13525.7V9840.66ZM12543.8 7587.91H13129.8V7386.63H12543.8V7587.91ZM13029.1 7487.27V9840.66H13230.4V7487.27H13029.1ZM13129.8 9740.02H12543.8V9941.3H13129.8V9740.02ZM12644.4 9840.66V7487.27H12443.2V9840.66H12644.4ZM13363.4 9378.21V8706.72H13162.2V9378.21H13363.4ZM13350.1 8756.72L13625.7 8275.27L13451 8175.28L13175.5 8656.73L13350.1 8756.72ZM13538.4 8325.92H14156V8124.63H13538.4V8325.92ZM14070.5 8172.25L13595.4 8938.77L13766.4 9044.81L14241.5 8278.3L14070.5 8172.25ZM13593.5 9041.69L14078.1 9890.55L14252.9 9790.76L13768.3 8941.89L13593.5 9041.69ZM14165.5 9740.02H13525.7V9941.3H14165.5V9740.02ZM13613.2 9790.92L13350.3 9328.48L13175.3 9427.95L13438.2 9890.4L13613.2 9790.92ZM14283.2 8988.62L14194.5 8941.17L14182.6 8963.41V8988.62H14283.2ZM14992.8 7661.47V7560.83H14932.4L14904 7614.03L14992.8 7661.47ZM15683.2 7661.47L15771 7710.67L15855 7560.83H15683.2V7661.47ZM14698.2 9419.39V9520.03H14757.2L14786 9468.59L14698.2 9419.39ZM14283.2 9419.39H14182.6V9520.03H14283.2V9419.39ZM15293.7 9419.39H15394.3V9318.75H15293.7V9419.39ZM14850.2 9419.39L14762.5 9370.08L14678.2 9520.03H14850.2V9419.39ZM15122.6 8934.78V8834.14H15063.7L15034.9 8885.46L15122.6 8934.78ZM15296.8 8934.78V9035.42H15356.5L15385.1 8983.1L15296.8 8934.78ZM15534.4 8500.84V8400.2H15474.7L15446.1 8452.51L15534.4 8500.84ZM15914.5 8500.84H16015.1V8400.2H15914.5V8500.84ZM15914.5 8934.78H15813.8V9035.42H15914.5V8934.78ZM16180.5 8934.78H16281.2V8834.14H16180.5V8934.78ZM16180.5 9419.39V9520.03H16281.2V9419.39H16180.5ZM15914.5 9419.39V9318.75H15813.8V9419.39H15914.5ZM15914.5 9840.66V9941.3H16015.1V9840.66H15914.5ZM15293.7 9840.66H15193V9941.3H15293.7V9840.66ZM14372 9036.07L15081.5 7708.92L14904 7614.03L14194.5 8941.17L14372 9036.07ZM14992.8 7762.12H15683.2V7560.83H14992.8V7762.12ZM15595.5 7612.28L14610.4 9370.19L14786 9468.59L15771 7710.67L15595.5 7612.28ZM14698.2 9318.75H14283.2V9520.03H14698.2V9318.75ZM14383.9 9419.39V8988.62H14182.6V9419.39H14383.9ZM15293.7 9318.75H14850.2V9520.03H15293.7V9318.75ZM14937.9 9468.7L15210.3 8984.09L15034.9 8885.46L14762.5 9370.08L14937.9 9468.7ZM15122.6 9035.42H15296.8V8834.14H15122.6V9035.42ZM15385.1 8983.1L15622.7 8549.17L15446.1 8452.51L15208.5 8886.45L15385.1 8983.1ZM15534.4 8601.48H15914.5V8400.2H15534.4V8601.48ZM15813.8 8500.84V8934.78H16015.1V8500.84H15813.8ZM15914.5 9035.42H16180.5V8834.14H15914.5V9035.42ZM16079.9 8934.78V9419.39H16281.2V8934.78H16079.9ZM16180.5 9318.75H15914.5V9520.03H16180.5V9318.75ZM15813.8 9419.39V9840.66H16015.1V9419.39H15813.8ZM15914.5 9740.02H15293.7V9941.3H15914.5V9740.02ZM15394.3 9840.66V9419.39H15193V9840.66H15394.3ZM16463.4 9324.37V9223.73H16362.7V9324.37H16463.4ZM17103.2 9324.37H17203.8V9223.73H17103.2V9324.37ZM17103.2 9840.66V9941.3H17203.8V9840.66H17103.2ZM16463.4 9840.66H16362.7V9941.3H16463.4V9840.66ZM16463.4 9425.01H17103.2V9223.73H16463.4V9425.01ZM17002.6 9324.37V9840.66H17203.8V9324.37H17002.6ZM17103.2 9740.02H16463.4V9941.3H17103.2V9740.02ZM16564 9840.66V9324.37H16362.7V9840.66H16564ZM18598.5 8389.98L18699 8386.26L18699 8385.72L18699 8385.19L18598.5 8389.98ZM18573.1 8203.1L18668 8169.61L18667.2 8167.17L18666.2 8164.78L18573.1 8203.1ZM18503.4 8136.59L18469.6 8231.36L18473.5 8232.76L18477.5 8233.83L18503.4 8136.59ZM18234.2 8127.08H18133.6V8237.29L18243.3 8227.31L18234.2 8127.08ZM18234.2 7639.3L18217.7 7540.03L18133.6 7554.05V7639.3H18234.2ZM18864.5 7693.15L18834.2 7789.12L18835 7789.36L18835.8 7789.59L18864.5 7693.15ZM19130.6 7873.69L19047.2 7930L19047.2 7930.02L19047.2 7930.04L19130.6 7873.69ZM19228.8 8180.93L19328.9 8170.92L19228.8 8180.93ZM19231.9 9270.52L19131.7 9261.57L19131.6 9262.46L19131.6 9263.35L19231.9 9270.52ZM19162.3 9568.26L19253.1 9611.53L19253.2 9611.44L19253.2 9611.34L19162.3 9568.26ZM18965.9 9770.97L19011.8 9860.55L19012.2 9860.34L19012.6 9860.12L18965.9 9770.97ZM18601.6 9856.49H18501V9965.63L18609.8 9956.81L18601.6 9856.49ZM17838.3 9812.15L17808 9908.12L17809 9908.43L17810 9908.73L17838.3 9812.15ZM17572.2 9625.27L17656.3 9569.92L17655.9 9569.42L17655.6 9568.93L17572.2 9625.27ZM17474 9321.2L17373.9 9331.38L17474 9321.2ZM17467.7 8231.61L17367.4 8222.66L17367.4 8223.55L17367.3 8224.44L17467.7 8231.61ZM17540.5 7933.87L17449.7 7890.6L17449.6 7890.7L17449.6 7890.79L17540.5 7933.87ZM17733.8 7734.33L17779.6 7823.9L17780 7823.69L17780.5 7823.48L17733.8 7734.33ZM18101.2 7645.64H18201.8V7536.51L18093 7545.33L18101.2 7645.64ZM18104.3 9108.98L18003.8 9112.71L18003.8 9113.36L18003.8 9114.01L18104.3 9108.98ZM18132.8 9299.03L18037.9 9332.28L18038.8 9334.84L18039.8 9337.35L18132.8 9299.03ZM18199.4 9368.71L18165.5 9463.49L18168.6 9464.59L18171.7 9465.48L18199.4 9368.71ZM18468.6 9375.05H18569.2V9252.29L18448.9 9276.36L18468.6 9375.05ZM18468.6 9862.83L18485.1 9962.1L18569.2 9948.08V9862.83H18468.6ZM18702.3 8751.07C18702.3 8567.76 18701.2 8445.47 18699 8386.26L18497.9 8393.71C18499.9 8448.52 18501 8566.95 18501 8751.07H18702.3ZM18699 8385.19C18694.8 8296.24 18686.1 8220.75 18668 8169.61L18478.2 8236.6C18485.5 8257.25 18493.7 8306.34 18497.9 8394.77L18699 8385.19ZM18666.2 8164.78C18641.9 8105.87 18597.2 8057.43 18529.4 8039.34L18477.5 8233.83C18477.7 8233.89 18477.3 8233.79 18476.6 8233.39C18475.9 8232.98 18475.3 8232.56 18475.1 8232.35C18474.7 8231.91 18476.9 8233.82 18480.1 8241.42L18666.2 8164.78ZM18537.3 8041.81C18489.9 8024.88 18423.7 8020.11 18351.4 8020.11V8221.39C18422.7 8221.39 18457.9 8227.18 18469.6 8231.36L18537.3 8041.81ZM18351.4 8020.11C18315.6 8020.11 18273.3 8022.47 18225.1 8026.86L18243.3 8227.31C18288 8223.25 18323.8 8221.39 18351.4 8221.39V8020.11ZM18334.8 8127.08V7639.3H18133.6V8127.08H18334.8ZM18250.8 7738.57C18254.9 7737.87 18267.2 7736.78 18291.2 7736.78V7535.5C18264.6 7535.5 18238.8 7536.51 18217.7 7540.03L18250.8 7738.57ZM18291.2 7736.78H18351.4V7535.5H18291.2V7736.78ZM18351.4 7736.78C18569.4 7736.78 18728.4 7755.7 18834.2 7789.12L18894.8 7597.18C18759.9 7554.58 18576.9 7535.5 18351.4 7535.5V7736.78ZM18835.8 7789.59C18939.2 7820.43 19006 7869 19047.2 7930L19214 7817.39C19141.1 7709.45 19030.6 7637.66 18893.3 7596.71L18835.8 7789.59ZM19047.2 7930.04C19088 7990.36 19117.1 8075.28 19128.6 8190.95L19328.9 8170.92C19315.1 8033.19 19278.8 7913.28 19214 7817.35L19047.2 7930.04ZM19128.6 8190.95C19140.8 8312.47 19147.1 8498.43 19147.1 8751.07H19348.4C19348.4 8496.91 19342.1 8302.78 19328.9 8170.92L19128.6 8190.95ZM19147.1 8751.07C19147.1 8978.32 19141.9 9147.88 19131.7 9261.57L19332.2 9279.47C19343.1 9156.66 19348.4 8979.92 19348.4 8751.07H19147.1ZM19131.6 9263.35C19123.7 9373.08 19102.5 9459.3 19071.3 9525.18L19253.2 9611.34C19298 9516.73 19323.3 9404.46 19332.3 9277.69L19131.6 9263.35ZM19071.4 9524.99C19038.7 9593.6 18989 9645.27 18919.2 9681.82L19012.6 9860.12C19120.2 9803.77 19201.3 9720.29 19253.1 9611.53L19071.4 9524.99ZM18920 9681.4C18850.2 9717.16 18743.7 9744.01 18593.5 9756.18L18609.8 9956.81C18772.1 9943.64 18908.4 9913.47 19011.8 9860.55L18920 9681.4ZM18702.3 9856.49V8751.07H18501V9856.49H18702.3ZM18351.4 9765.36C18135.5 9765.36 17975.6 9747.52 17866.6 9715.57L17810 9908.73C17945.9 9948.58 18128 9966.64 18351.4 9966.64V9765.36ZM17868.6 9716.18C17765.3 9683.57 17698 9633.25 17656.3 9569.92L17488.2 9680.62C17560.5 9790.45 17670.5 9864.71 17808 9908.12L17868.6 9716.18ZM17655.6 9568.93C17614.7 9508.34 17585.7 9424.29 17574.2 9311.02L17373.9 9331.38C17387.7 9467.28 17424.2 9585.94 17488.8 9681.62L17655.6 9568.93ZM17574.2 9311.02C17562 9191.74 17555.7 9005.9 17555.7 8751.07H17354.4C17354.4 9007.24 17360.7 9201.49 17373.9 9331.38L17574.2 9311.02ZM17555.7 8751.07C17555.7 8523.65 17559.9 8353.37 17568.1 8238.78L17367.3 8224.44C17358.6 8346.35 17354.4 8522.37 17354.4 8751.07H17555.7ZM17567.9 8240.56C17577.8 8130.4 17600 8043.51 17631.5 7976.96L17449.6 7890.79C17405.1 7984.71 17378.7 8096.32 17367.4 8222.66L17567.9 8240.56ZM17631.4 7977.14C17664.2 7908.2 17712.9 7858.06 17779.6 7823.9L17687.9 7644.75C17581.4 7699.28 17501.3 7782.17 17449.7 7890.6L17631.4 7977.14ZM17780.5 7823.48C17852.3 7785.83 17959.7 7758.08 18109.3 7745.95L18093 7545.33C17930.1 7558.54 17792.6 7589.91 17687.1 7645.17L17780.5 7823.48ZM18000.5 7645.64V8751.07H18201.8V7645.64H18000.5ZM18000.5 8751.07C18000.5 8932.27 18001.6 9053.5 18003.8 9112.71L18204.9 9105.26C18202.9 9050.44 18201.8 8933.06 18201.8 8751.07H18000.5ZM18003.8 9114.01C18008.2 9201.16 18018.2 9276.14 18037.9 9332.28L18227.8 9265.78C18217.9 9237.45 18208.9 9185.74 18204.9 9103.96L18003.8 9114.01ZM18039.8 9337.35C18062.7 9392.88 18103 9441.15 18165.5 9463.49L18233.2 9273.94C18233.2 9273.91 18233.3 9273.98 18233.6 9274.15C18233.9 9274.32 18233.8 9274.32 18233.4 9273.88C18232.5 9272.98 18229.5 9269.45 18225.9 9260.71L18039.8 9337.35ZM18171.7 9465.48C18216.1 9478.16 18279.4 9482.02 18351.4 9482.02V9280.74C18279.9 9280.74 18241.7 9276.15 18227 9271.94L18171.7 9465.48ZM18351.4 9482.02H18414.7V9280.74H18351.4V9482.02ZM18414.7 9482.02C18438.4 9482.02 18463.4 9478.72 18488.3 9473.73L18448.9 9276.36C18431.6 9279.82 18420.7 9280.74 18414.7 9280.74V9482.02ZM18368 9375.05V9862.83H18569.2V9375.05H18368ZM18452 9763.56C18447.9 9764.26 18435.6 9765.36 18411.6 9765.36V9966.64C18438.2 9966.64 18464 9965.62 18485.1 9962.1L18452 9763.56ZM18411.6 9765.36H18351.4V9966.64H18411.6V9765.36Z" fill="#130D23" fill-opacity="0.05" mask="url(#path-1-outside-1_271_2)"/>
<path d="M4308.12 6245.74L5707.79 7295.49L5707.79 9043.89L4392.92 9832.81L74.6318 7241.84L74.548 5496.79L4392.83 2905.81L5707.7 3694.73L5707.71 5437.72L4315.13 6160.82L4244.09 6197.71L4308.12 6245.74Z" fill="#2C2C2C" stroke="#2C2C2C" stroke-width="103.456"/>
<path d="M24.313 7270.33L4392.91 4649.17L5758.1 5468.28L2590.87 7270.33L5758.11 9072.38L4392.92 9891.5L24.313 7270.33Z" fill="black"/>
<path d="M4392.91 4707.85L5658.37 5467.13L2565.99 7226.59L2489.12 7270.33L2565.99 7314.07L5658.38 9073.54L4392.92 9832.81L122.118 7270.33L4392.91 4707.85Z" stroke="#130D23" stroke-opacity="0.05" stroke-width="103.456"/>
<path d="M32743.8 5468.3L28375.2 2847.13L27010 3666.24L27010 5468.29L28429.7 6205.48L27009.9 7270.33L27009.9 9072.38L28375.1 9891.5L32743.7 7270.33L32743.8 5468.3Z" fill="#2C2C2C"/>
<path d="M28459.9 6245.74L27060.2 7295.49L27060.2 9043.89L28375.1 9832.81L32693.4 7241.84L32693.5 5496.79L28375.2 2905.81L27060.3 3694.73L27060.3 5437.72L28452.9 6160.82L28523.9 6197.71L28459.9 6245.74Z" stroke="#130D23" stroke-opacity="0.05" stroke-width="103.456"/>
<path d="M32743.7 7270.33L28375.1 4649.17L27009.9 5468.28L30177.1 7270.33L27009.9 9072.38L28375.1 9891.5L32743.7 7270.33Z" fill="black"/>
<path d="M28375.1 4707.85L27109.6 5467.13L30202 7226.59L30278.9 7270.33L30202 7314.07L27109.6 9073.53L28375.1 9832.81L32645.9 7270.33L28375.1 4707.85Z" stroke="#130D23" stroke-opacity="0.05" stroke-width="103.456"/>
<path d="M20423.4 9392.37L24082.1 1528.87H26266.4V3385.53L22607.7 11249H20423.4V9392.37Z" fill="#2C2C2C"/>
<path d="M20473.7 11198.7V9403.51L24114.2 1579.19H26216.1V3374.4L22575.6 11198.7H20473.7Z" stroke="#130D23" stroke-opacity="0.05" stroke-width="103.456"/>
<path d="M20423.6 11249H22607.9L26266.6 3385.48H24082.3L20423.6 11249Z" fill="black"/>
<path d="M26187.7 3435.8L22575.8 11198.7H20502.5L24114.4 3435.8H26187.7Z" stroke="#130D23" stroke-opacity="0.05" stroke-width="103.456"/>
<rect x="24082" y="1528.87" width="2184.31" height="1856.66" fill="#2C2C2C"/>
<rect x="24133.8" y="1580.6" width="2080.85" height="1753.2" stroke="#130D23" stroke-opacity="0.05" stroke-width="103.456"/>
</svg>
