<svg width="32769" height="11250" viewBox="0 0 32769 11250" fill="none" xmlns="http://www.w3.org/2000/svg">
<mask id="path-1-outside-1_282_4" maskUnits="userSpaceOnUse" x="7342.46" y="2495.44" width="12096.4" height="7471.63" fill="black">
<rect fill="white" x="7342.46" y="2495.44" width="12096.4" height="7471.63"/>
<path d="M9764.96 4187.2C9764.96 4050.8 9759.72 3953.75 9749.22 3896.04C9738.73 3838.34 9707.26 3796.37 9654.8 3770.14C9607.58 3743.91 9518.4 3725.55 9387.25 3715.05C9308.56 3709.81 9138.06 3707.19 8875.76 3707.19C8623.95 3707.19 8390.5 3717.68 8175.41 3738.66L7758.35 3762.27V2739.29C8251.48 2644.86 8783.95 2597.65 9355.77 2597.65C9796.44 2597.65 10140.1 2629.13 10386.6 2692.08C10638.4 2755.03 10827.3 2854.7 10953.2 2991.1C11063.4 3117.01 11134.2 3277.01 11165.7 3471.11C11202.4 3665.22 11220.7 3935.39 11220.7 4281.63V6673.82H9764.96V4187.2ZM8600.34 6728.9C8238.37 6728.9 7970.82 6629.23 7797.7 6429.88C7624.58 6225.28 7538.02 5918.39 7538.02 5509.2C7538.02 5257.39 7556.38 5055.42 7593.1 4903.28C7629.83 4745.9 7692.78 4622.62 7781.96 4533.44C7871.14 4439.01 7994.43 4373.43 8151.81 4336.71C8309.19 4294.74 8516.41 4273.76 8773.46 4273.76L9434.46 4289.5V4989.84H9355.77C9235.11 4989.84 9156.42 4992.46 9119.7 4997.71C9014.78 5002.96 8959.7 5052.79 8954.45 5147.22C8949.2 5178.7 8946.58 5244.27 8946.58 5343.95C8946.58 5422.64 8949.2 5482.97 8954.45 5524.94C8964.94 5566.91 8980.68 5601 9001.66 5627.23C9027.89 5663.96 9067.24 5684.94 9119.7 5690.19C9193.14 5700.68 9271.84 5705.93 9355.77 5705.93H9434.46V6508.57C9319.05 6597.75 9195.77 6655.46 9064.62 6681.69C8938.71 6713.16 8783.95 6728.9 8600.34 6728.9ZM14703.7 3738.66C14572.6 3717.68 14383.7 3707.19 14137.1 3707.19C13974.5 3707.19 13859.1 3717.68 13790.9 3738.66V2597.65C14163.4 2602.9 14549 2650.11 14947.7 2739.29V3762.27L14703.7 3738.66ZM13735.8 6736.77C13326.6 6736.77 13001.4 6686.93 12760.1 6587.26C12518.7 6487.58 12340.4 6340.7 12225 6146.59C12120 5978.72 12051.8 5781.99 12020.4 5556.41C11994.1 5330.83 11981 5037.06 11981 4675.08C11981 4344.58 11994.1 4069.16 12020.4 3848.83C12046.6 3628.49 12101.7 3434.39 12185.6 3266.52C12285.3 3072.42 12434.8 2922.9 12634.2 2817.98C12838.7 2707.82 13114.2 2639.62 13460.4 2613.39V4667.21C13460.4 4898.04 13465.7 5071.15 13476.1 5186.57C13491.9 5301.98 13520.7 5391.16 13562.7 5454.12C13609.9 5517.07 13675.5 5561.66 13759.4 5587.89C13848.6 5614.12 13974.5 5627.23 14137.1 5627.23C14415.2 5627.23 14606.7 5619.37 14711.6 5603.63L14979.1 5572.15V6595.13C14590.9 6689.56 14176.5 6736.77 13735.8 6736.77ZM17417.3 4273.76H17968.1C17968.1 3979.98 17939.3 3791.12 17881.6 3707.19C17850.1 3659.97 17808.1 3631.12 17755.7 3620.63C17703.2 3604.89 17627.2 3597.02 17527.5 3597.02H17417.3V2597.65H17527.5C17978.6 2597.65 18324.9 2634.37 18566.2 2707.82C18812.8 2781.26 18993.7 2901.92 19109.2 3069.79C19214.1 3216.68 19277 3405.54 19298 3636.36C19324.2 3867.19 19337.4 4213.43 19337.4 4675.08V4989.84H17417.3V4273.76ZM17684.9 6736.77C17202.2 6736.77 16821.9 6697.43 16543.8 6618.74C16271.1 6534.8 16066.5 6403.65 15930.1 6225.28C15809.4 6067.9 15730.7 5873.8 15694 5642.97C15657.3 5406.9 15638.9 5084.27 15638.9 4675.08C15638.9 4297.36 15652 3998.34 15678.2 3778.01C15704.5 3552.43 15759.6 3360.95 15843.5 3203.57C15937.9 3030.45 16082.2 2896.67 16276.3 2802.24C16475.6 2702.57 16745.8 2639.62 17086.8 2613.39V4989.84C17086.8 5168.21 17094.7 5296.73 17110.4 5375.42C17126.2 5448.87 17162.9 5503.95 17220.6 5540.67C17283.5 5582.64 17380.6 5606.25 17511.7 5611.5C17679.6 5621.99 17858 5627.23 18046.8 5627.23C18382.6 5627.23 18626.5 5619.37 18778.7 5603.63L19180 5572.15V6587.26C18970.1 6650.21 18681.6 6692.18 18314.4 6713.16C18136 6728.9 17926.2 6736.77 17684.9 6736.77ZM7443.15 7487.64H8029.12V9841.03H7443.15V7487.64ZM8358.53 9077.69C8358.53 8965.77 8357.47 8891.86 8355.36 8855.97C8351.14 8796.84 8345.86 8757.78 8339.53 8738.77C8331.08 8717.66 8316.3 8704.99 8295.18 8700.76C8274.07 8694.43 8240.28 8691.26 8193.82 8691.26H8162.15V8304.84C8246.61 8237.26 8354.31 8203.48 8485.23 8203.48C8675.27 8203.48 8803.02 8261.55 8868.48 8377.69C8898.05 8428.37 8918.11 8490.66 8928.66 8564.56C8939.22 8636.36 8944.5 8725.05 8944.5 8830.63V9841.03H8358.53V9077.69ZM10131.9 8840.13C10131.9 8785.23 10129.8 8746.16 10125.6 8722.94C10121.4 8699.71 10108.7 8682.81 10087.6 8672.26C10068.6 8661.7 10032.7 8654.31 9979.9 8650.08C9948.23 8647.97 9879.6 8646.92 9774.02 8646.92C9672.66 8646.92 9578.69 8651.14 9492.12 8659.59L9324.25 8669.09V8257.33C9522.74 8219.32 9737.07 8200.31 9967.23 8200.31C10144.6 8200.31 10282.9 8212.98 10382.2 8238.32C10483.5 8263.66 10559.5 8303.78 10610.2 8358.68C10654.6 8409.36 10683.1 8473.77 10695.7 8551.9C10710.5 8630.02 10717.9 8738.77 10717.9 8878.14V9841.03H10131.9V8840.13ZM9663.16 9863.21C9517.46 9863.21 9409.77 9823.09 9340.08 9742.84C9270.4 9660.49 9235.56 9536.96 9235.56 9372.26C9235.56 9270.9 9242.95 9189.6 9257.73 9128.36C9272.51 9065.02 9297.85 9015.39 9333.75 8979.5C9369.65 8941.49 9419.27 8915.09 9482.62 8900.31C9545.96 8883.42 9629.37 8874.97 9732.84 8874.97L9998.91 8881.31V9163.21H9967.23C9918.66 9163.21 9886.99 9164.26 9872.21 9166.37C9829.98 9168.49 9807.8 9188.55 9805.69 9226.55C9803.58 9239.22 9802.53 9265.62 9802.53 9305.74C9802.53 9337.41 9803.58 9361.7 9805.69 9378.59C9809.92 9395.48 9816.25 9409.21 9824.7 9419.77C9835.26 9434.55 9851.09 9443 9872.21 9445.11C9901.77 9449.33 9933.45 9451.44 9967.23 9451.44H9998.91V9774.52C9952.45 9810.42 9902.83 9833.64 9850.04 9844.2C9799.36 9856.87 9737.07 9863.21 9663.16 9863.21ZM12119.9 8659.59C12067.1 8651.14 11991.1 8646.92 11891.8 8646.92C11826.3 8646.92 11779.9 8651.14 11752.4 8659.59V8200.31C11902.4 8202.42 12057.6 8221.43 12218.1 8257.33V8669.09L12119.9 8659.59ZM11730.3 9866.37C11565.6 9866.37 11434.6 9846.31 11337.5 9806.19C11240.4 9766.07 11168.6 9706.95 11122.1 9628.82C11079.9 9561.25 11052.4 9482.06 11039.8 9391.26C11029.2 9300.46 11023.9 9182.21 11023.9 9036.51C11023.9 8903.48 11029.2 8792.62 11039.8 8703.93C11050.3 8615.24 11072.5 8537.11 11106.3 8469.54C11146.4 8391.41 11206.6 8331.23 11286.8 8289C11369.2 8244.66 11480 8217.2 11619.4 8206.65V9033.34C11619.4 9126.25 11621.5 9195.94 11625.7 9242.39C11632.1 9288.85 11643.7 9324.74 11660.6 9350.08C11679.6 9375.42 11706 9393.37 11739.8 9403.93C11775.7 9414.49 11826.3 9419.77 11891.8 9419.77C12003.7 9419.77 12080.8 9416.6 12123 9410.27L12230.7 9397.6V9809.36C12074.5 9847.37 11907.6 9866.37 11730.3 9866.37ZM12543.8 7487.64H13129.8V9841.03H12543.8V7487.64ZM13262.8 9378.59V8707.1L13538.4 8225.65H14156L13680.9 8992.17L14165.5 9841.03H13525.7L13262.8 9378.59ZM14283.3 8989L14992.8 7661.85H15683.3L14698.2 9419.77H14283.3V8989ZM15293.7 9419.77H14850.2L15122.6 8935.15H15296.8L15534.4 8501.22H15914.5V8935.15H16180.5V9419.77H15914.5V9841.03H15293.7V9419.77ZM16463.4 9324.74H17103.2V9841.03H16463.4V9324.74ZM18601.6 8751.44C18601.6 8567.73 18600.6 8447.37 18598.5 8390.36C18594.2 8301.67 18585.8 8239.38 18573.1 8203.48C18558.3 8167.58 18535.1 8145.41 18503.4 8136.96C18473.9 8126.41 18423.2 8121.13 18351.4 8121.13C18319.7 8121.13 18280.7 8123.24 18234.2 8127.46V7639.68C18246.9 7637.57 18265.9 7636.51 18291.2 7636.51H18351.4C18573.1 7636.51 18744.2 7655.52 18864.5 7693.52C18984.9 7729.42 19073.6 7789.6 19130.6 7874.07C19183.4 7952.2 19216.1 8054.61 19228.8 8181.31C19241.5 8308 19247.8 8498.05 19247.8 8751.44C19247.8 8979.5 19242.5 9152.65 19232 9270.9C19223.5 9389.15 19200.3 9488.39 19162.3 9568.64C19120 9657.32 19054.6 9724.9 18965.9 9771.35C18879.3 9815.69 18757.9 9844.2 18601.6 9856.87V8751.44ZM18351.4 9866.37C18131.8 9866.37 17960.8 9848.42 17838.3 9812.53C17717.9 9774.52 17629.2 9712.23 17572.2 9625.65C17519.4 9547.52 17486.7 9446.16 17474 9321.58C17461.4 9196.99 17455 9006.95 17455 8751.44C17455 8523.39 17459.3 8350.24 17467.7 8231.99C17478.3 8113.74 17502.5 8014.49 17540.5 7934.25C17582.8 7845.56 17647.2 7779.05 17733.8 7734.7C17822.4 7688.25 17944.9 7658.68 18101.2 7646.01V8751.44C18101.2 8933.04 18102.2 9052.35 18104.4 9109.36C18108.6 9193.82 18118.1 9257.17 18132.9 9299.41C18147.6 9335.3 18169.8 9358.53 18199.4 9369.09C18228.9 9377.54 18279.6 9381.76 18351.4 9381.76H18414.8C18429.5 9381.76 18447.5 9379.65 18468.6 9375.42V9863.21C18455.9 9865.32 18436.9 9866.37 18411.6 9866.37H18351.4Z"/>
</mask>
<path d="M9764.96 4187.2C9764.96 4050.8 9759.72 3953.75 9749.22 3896.04C9738.73 3838.34 9707.26 3796.37 9654.8 3770.14C9607.58 3743.91 9518.4 3725.55 9387.25 3715.05C9308.56 3709.81 9138.06 3707.19 8875.76 3707.19C8623.95 3707.19 8390.5 3717.68 8175.41 3738.66L7758.35 3762.27V2739.29C8251.48 2644.86 8783.95 2597.65 9355.77 2597.65C9796.44 2597.65 10140.1 2629.13 10386.6 2692.08C10638.4 2755.03 10827.3 2854.7 10953.2 2991.1C11063.4 3117.01 11134.2 3277.01 11165.7 3471.11C11202.4 3665.22 11220.7 3935.39 11220.7 4281.63V6673.82H9764.96V4187.2ZM8600.34 6728.9C8238.37 6728.9 7970.82 6629.23 7797.7 6429.88C7624.58 6225.28 7538.02 5918.39 7538.02 5509.2C7538.02 5257.39 7556.38 5055.42 7593.1 4903.28C7629.83 4745.9 7692.78 4622.62 7781.96 4533.44C7871.14 4439.01 7994.43 4373.43 8151.81 4336.71C8309.19 4294.74 8516.41 4273.76 8773.46 4273.76L9434.46 4289.5V4989.84H9355.77C9235.11 4989.84 9156.42 4992.46 9119.7 4997.71C9014.78 5002.96 8959.7 5052.79 8954.45 5147.22C8949.2 5178.7 8946.58 5244.27 8946.58 5343.95C8946.58 5422.64 8949.2 5482.97 8954.45 5524.94C8964.94 5566.91 8980.68 5601 9001.66 5627.23C9027.89 5663.96 9067.24 5684.94 9119.7 5690.19C9193.14 5700.68 9271.84 5705.93 9355.77 5705.93H9434.46V6508.57C9319.05 6597.75 9195.77 6655.46 9064.62 6681.69C8938.71 6713.16 8783.95 6728.9 8600.34 6728.9ZM14703.7 3738.66C14572.6 3717.68 14383.7 3707.19 14137.1 3707.19C13974.5 3707.19 13859.1 3717.68 13790.9 3738.66V2597.65C14163.4 2602.9 14549 2650.11 14947.7 2739.29V3762.27L14703.7 3738.66ZM13735.8 6736.77C13326.6 6736.77 13001.4 6686.93 12760.1 6587.26C12518.7 6487.58 12340.4 6340.7 12225 6146.59C12120 5978.72 12051.8 5781.99 12020.4 5556.41C11994.1 5330.83 11981 5037.06 11981 4675.08C11981 4344.58 11994.1 4069.16 12020.4 3848.83C12046.6 3628.49 12101.7 3434.39 12185.6 3266.52C12285.3 3072.42 12434.8 2922.9 12634.2 2817.98C12838.7 2707.82 13114.2 2639.62 13460.4 2613.39V4667.21C13460.4 4898.04 13465.7 5071.15 13476.1 5186.57C13491.9 5301.98 13520.7 5391.16 13562.7 5454.12C13609.9 5517.07 13675.5 5561.66 13759.4 5587.89C13848.6 5614.12 13974.5 5627.23 14137.1 5627.23C14415.2 5627.23 14606.7 5619.37 14711.6 5603.63L14979.1 5572.15V6595.13C14590.9 6689.56 14176.5 6736.77 13735.8 6736.77ZM17417.3 4273.76H17968.1C17968.1 3979.98 17939.3 3791.12 17881.6 3707.19C17850.1 3659.97 17808.1 3631.12 17755.7 3620.63C17703.2 3604.89 17627.2 3597.02 17527.5 3597.02H17417.3V2597.65H17527.5C17978.6 2597.65 18324.9 2634.37 18566.2 2707.82C18812.8 2781.26 18993.7 2901.92 19109.2 3069.79C19214.1 3216.68 19277 3405.54 19298 3636.36C19324.2 3867.19 19337.4 4213.43 19337.4 4675.08V4989.84H17417.3V4273.76ZM17684.9 6736.77C17202.2 6736.77 16821.9 6697.43 16543.8 6618.74C16271.1 6534.8 16066.5 6403.65 15930.1 6225.28C15809.4 6067.9 15730.7 5873.8 15694 5642.97C15657.3 5406.9 15638.9 5084.27 15638.9 4675.08C15638.9 4297.36 15652 3998.34 15678.2 3778.01C15704.5 3552.43 15759.6 3360.95 15843.5 3203.57C15937.9 3030.45 16082.2 2896.67 16276.3 2802.24C16475.6 2702.57 16745.8 2639.62 17086.8 2613.39V4989.84C17086.8 5168.21 17094.7 5296.73 17110.4 5375.42C17126.2 5448.87 17162.9 5503.95 17220.6 5540.67C17283.5 5582.64 17380.6 5606.25 17511.7 5611.5C17679.6 5621.99 17858 5627.23 18046.8 5627.23C18382.6 5627.23 18626.5 5619.37 18778.7 5603.63L19180 5572.15V6587.26C18970.1 6650.21 18681.6 6692.18 18314.4 6713.16C18136 6728.9 17926.2 6736.77 17684.9 6736.77ZM7443.15 7487.64H8029.12V9841.03H7443.15V7487.64ZM8358.53 9077.69C8358.53 8965.77 8357.47 8891.86 8355.36 8855.97C8351.14 8796.84 8345.86 8757.78 8339.53 8738.77C8331.08 8717.66 8316.3 8704.99 8295.18 8700.76C8274.07 8694.43 8240.28 8691.26 8193.82 8691.26H8162.15V8304.84C8246.61 8237.26 8354.31 8203.48 8485.23 8203.48C8675.27 8203.48 8803.02 8261.55 8868.48 8377.69C8898.05 8428.37 8918.11 8490.66 8928.66 8564.56C8939.22 8636.36 8944.5 8725.05 8944.5 8830.63V9841.03H8358.53V9077.69ZM10131.9 8840.13C10131.9 8785.23 10129.8 8746.16 10125.6 8722.94C10121.4 8699.71 10108.7 8682.81 10087.6 8672.26C10068.6 8661.7 10032.7 8654.31 9979.9 8650.08C9948.23 8647.97 9879.6 8646.92 9774.02 8646.92C9672.66 8646.92 9578.69 8651.14 9492.12 8659.59L9324.25 8669.09V8257.33C9522.74 8219.32 9737.07 8200.31 9967.23 8200.31C10144.6 8200.31 10282.9 8212.98 10382.2 8238.32C10483.5 8263.66 10559.5 8303.78 10610.2 8358.68C10654.6 8409.36 10683.1 8473.77 10695.7 8551.9C10710.5 8630.02 10717.9 8738.77 10717.9 8878.14V9841.03H10131.9V8840.13ZM9663.16 9863.21C9517.46 9863.21 9409.77 9823.09 9340.08 9742.84C9270.4 9660.49 9235.56 9536.96 9235.56 9372.26C9235.56 9270.9 9242.95 9189.6 9257.73 9128.36C9272.51 9065.02 9297.85 9015.39 9333.75 8979.5C9369.65 8941.49 9419.27 8915.09 9482.62 8900.31C9545.96 8883.42 9629.37 8874.97 9732.84 8874.97L9998.91 8881.31V9163.21H9967.23C9918.66 9163.21 9886.99 9164.26 9872.21 9166.37C9829.98 9168.49 9807.8 9188.55 9805.69 9226.55C9803.58 9239.22 9802.53 9265.62 9802.53 9305.74C9802.53 9337.41 9803.58 9361.7 9805.69 9378.59C9809.92 9395.48 9816.25 9409.21 9824.7 9419.77C9835.26 9434.55 9851.09 9443 9872.21 9445.11C9901.77 9449.33 9933.45 9451.44 9967.23 9451.44H9998.91V9774.52C9952.45 9810.42 9902.83 9833.64 9850.04 9844.2C9799.36 9856.87 9737.07 9863.21 9663.16 9863.21ZM12119.9 8659.59C12067.1 8651.14 11991.1 8646.92 11891.8 8646.92C11826.3 8646.92 11779.9 8651.14 11752.4 8659.59V8200.31C11902.4 8202.42 12057.6 8221.43 12218.1 8257.33V8669.09L12119.9 8659.59ZM11730.3 9866.37C11565.6 9866.37 11434.6 9846.31 11337.5 9806.19C11240.4 9766.07 11168.6 9706.95 11122.1 9628.82C11079.9 9561.25 11052.4 9482.06 11039.8 9391.26C11029.2 9300.46 11023.9 9182.21 11023.9 9036.51C11023.9 8903.48 11029.2 8792.62 11039.8 8703.93C11050.3 8615.24 11072.5 8537.11 11106.3 8469.54C11146.4 8391.41 11206.6 8331.23 11286.8 8289C11369.2 8244.66 11480 8217.2 11619.4 8206.65V9033.34C11619.4 9126.25 11621.5 9195.94 11625.7 9242.39C11632.1 9288.85 11643.7 9324.74 11660.6 9350.08C11679.6 9375.42 11706 9393.37 11739.8 9403.93C11775.7 9414.49 11826.3 9419.77 11891.8 9419.77C12003.7 9419.77 12080.8 9416.6 12123 9410.27L12230.7 9397.6V9809.36C12074.5 9847.37 11907.6 9866.37 11730.3 9866.37ZM12543.8 7487.64H13129.8V9841.03H12543.8V7487.64ZM13262.8 9378.59V8707.1L13538.4 8225.65H14156L13680.9 8992.17L14165.5 9841.03H13525.7L13262.8 9378.59ZM14283.3 8989L14992.8 7661.85H15683.3L14698.2 9419.77H14283.3V8989ZM15293.7 9419.77H14850.2L15122.6 8935.15H15296.8L15534.4 8501.22H15914.5V8935.15H16180.5V9419.77H15914.5V9841.03H15293.7V9419.77ZM16463.4 9324.74H17103.2V9841.03H16463.4V9324.74ZM18601.6 8751.44C18601.6 8567.73 18600.6 8447.37 18598.5 8390.36C18594.2 8301.67 18585.8 8239.38 18573.1 8203.48C18558.3 8167.58 18535.1 8145.41 18503.4 8136.96C18473.9 8126.41 18423.2 8121.13 18351.4 8121.13C18319.7 8121.13 18280.7 8123.24 18234.2 8127.46V7639.68C18246.9 7637.57 18265.9 7636.51 18291.2 7636.51H18351.4C18573.1 7636.51 18744.2 7655.52 18864.5 7693.52C18984.9 7729.42 19073.6 7789.6 19130.6 7874.07C19183.4 7952.2 19216.1 8054.61 19228.8 8181.31C19241.5 8308 19247.8 8498.05 19247.8 8751.44C19247.8 8979.5 19242.5 9152.65 19232 9270.9C19223.5 9389.15 19200.3 9488.39 19162.3 9568.64C19120 9657.32 19054.6 9724.9 18965.9 9771.35C18879.3 9815.69 18757.9 9844.2 18601.6 9856.87V8751.44ZM18351.4 9866.37C18131.8 9866.37 17960.8 9848.42 17838.3 9812.53C17717.9 9774.52 17629.2 9712.23 17572.2 9625.65C17519.4 9547.52 17486.7 9446.16 17474 9321.58C17461.4 9196.99 17455 9006.95 17455 8751.44C17455 8523.39 17459.3 8350.24 17467.7 8231.99C17478.3 8113.74 17502.5 8014.49 17540.5 7934.25C17582.8 7845.56 17647.2 7779.05 17733.8 7734.7C17822.4 7688.25 17944.9 7658.68 18101.2 7646.01V8751.44C18101.2 8933.04 18102.2 9052.35 18104.4 9109.36C18108.6 9193.82 18118.1 9257.17 18132.9 9299.41C18147.6 9335.3 18169.8 9358.53 18199.4 9369.09C18228.9 9377.54 18279.6 9381.76 18351.4 9381.76H18414.8C18429.5 9381.76 18447.5 9379.65 18468.6 9375.42V9863.21C18455.9 9865.32 18436.9 9866.37 18411.6 9866.37H18351.4Z" fill="white"/>
<path d="M9654.8 3770.14L9605.92 3858.11L9607.83 3859.18L9609.79 3860.15L9654.8 3770.14ZM9387.25 3715.05L9395.27 3614.73L9394.61 3614.68L9393.94 3614.64L9387.25 3715.05ZM8175.41 3738.66L8181.1 3839.14L8183.15 3839.03L8185.19 3838.83L8175.41 3738.66ZM7758.35 3762.27H7657.71V3868.77L7764.04 3862.75L7758.35 3762.27ZM7758.35 2739.29L7739.43 2640.45L7657.71 2656.09V2739.29H7758.35ZM10386.6 2692.08L10361.7 2789.59L10362 2789.65L10362.2 2789.71L10386.6 2692.08ZM10953.2 2991.1L11028.9 2924.83L11028 2923.82L11027.1 2922.84L10953.2 2991.1ZM11165.7 3471.11L11066.3 3487.22L11066.5 3488.53L11066.8 3489.82L11165.7 3471.11ZM11220.7 6673.82V6774.46H11321.4V6673.82H11220.7ZM9764.96 6673.82H9664.32V6774.46H9764.96V6673.82ZM7797.7 6429.88L7720.87 6494.89L7721.29 6495.38L7721.71 6495.87L7797.7 6429.88ZM7593.1 4903.28L7690.93 4926.9L7691.02 4926.52L7691.11 4926.15L7593.1 4903.28ZM7781.96 4533.44L7853.12 4604.6L7854.14 4603.58L7855.13 4602.54L7781.96 4533.44ZM8151.81 4336.71L8174.68 4434.72L8176.21 4434.36L8177.74 4433.95L8151.81 4336.71ZM8773.46 4273.76L8775.86 4173.15L8774.66 4173.12H8773.46V4273.76ZM9434.46 4289.5H9535.1V4191.22L9436.86 4188.88L9434.46 4289.5ZM9434.46 4989.84V5090.48H9535.1V4989.84H9434.46ZM9119.7 4997.71L9124.73 5098.22L9129.35 5097.99L9133.93 5097.34L9119.7 4997.71ZM8954.45 5147.22L9053.72 5163.77L9054.63 5158.32L9054.94 5152.8L8954.45 5147.22ZM8954.45 5524.94L8854.59 5537.42L8855.34 5543.45L8856.81 5549.35L8954.45 5524.94ZM9001.66 5627.23L9083.56 5568.74L9081.96 5566.51L9080.25 5564.36L9001.66 5627.23ZM9119.7 5690.19L9133.93 5590.56L9131.83 5590.26L9129.71 5590.05L9119.7 5690.19ZM9434.46 5705.93H9535.1V5605.28H9434.46V5705.93ZM9434.46 6508.57L9496 6588.2L9535.1 6557.99V6508.57H9434.46ZM9064.62 6681.69L9044.88 6583L9042.53 6583.47L9040.21 6584.05L9064.62 6681.69ZM9865.6 4187.2C9865.6 4050.57 9860.51 3945.5 9848.24 3878.04L9650.21 3914.05C9658.93 3962 9664.32 4051.04 9664.32 4187.2H9865.6ZM9848.24 3878.04C9832.08 3789.17 9780.6 3720.52 9699.8 3680.12L9609.79 3860.15C9633.92 3872.22 9645.38 3887.51 9650.21 3914.05L9848.24 3878.04ZM9703.67 3682.16C9635.3 3644.18 9525.83 3625.18 9395.27 3614.73L9379.22 3815.37C9510.97 3825.91 9579.86 3843.64 9605.92 3858.11L9703.67 3682.16ZM9393.94 3614.64C9311.27 3609.13 9137.25 3606.55 8875.76 3606.55V3807.83C9138.88 3807.83 9305.84 3810.49 9380.55 3815.47L9393.94 3614.64ZM8875.76 3606.55C8621.2 3606.55 8384.45 3617.15 8165.64 3638.5L8185.19 3838.83C8396.55 3818.21 8626.7 3807.83 8875.76 3807.83V3606.55ZM8169.73 3638.18L7752.67 3661.79L7764.04 3862.75L8181.1 3839.14L8169.73 3638.18ZM7858.99 3762.27V2739.29H7657.71V3762.27H7858.99ZM7777.28 2838.14C8263.38 2745.05 8789.45 2698.29 9355.77 2698.29V2497.01C8778.46 2497.01 8239.58 2544.67 7739.43 2640.45L7777.28 2838.14ZM9355.77 2698.29C9793.2 2698.29 10127.1 2729.69 10361.7 2789.59L10411.5 2594.57C10153 2528.56 9799.68 2497.01 9355.77 2497.01V2698.29ZM10362.2 2789.71C10602.3 2849.73 10770.9 2942.05 10879.2 3059.36L11027.1 2922.84C10883.6 2767.36 10674.6 2660.33 10411 2594.44L10362.2 2789.71ZM10877.4 3057.37C10973.2 3166.77 11037.3 3308.41 11066.3 3487.22L11265 3455C11231 3245.61 11153.5 3067.24 11028.9 2924.83L10877.4 3057.37ZM11066.8 3489.82C11101.8 3674.83 11120.1 3937.74 11120.1 4281.63H11321.4C11321.4 3933.04 11303 3655.61 11264.5 3452.41L11066.8 3489.82ZM11120.1 4281.63V6673.82H11321.4V4281.63H11120.1ZM11220.7 6573.18H9764.96V6774.46H11220.7V6573.18ZM9865.6 6673.82V4187.2H9664.32V6673.82H9865.6ZM8600.34 6628.26C8256.2 6628.26 8021.35 6533.92 7873.69 6363.89L7721.71 6495.87C7920.29 6724.53 8220.53 6829.54 8600.34 6829.54V6628.26ZM7874.53 6364.87C7723.08 6185.89 7638.66 5906.6 7638.66 5509.2H7437.38C7437.38 5930.18 7526.08 6264.68 7720.87 6494.89L7874.53 6364.87ZM7638.66 5509.2C7638.66 5261.15 7656.86 5068.08 7690.93 4926.9L7495.27 4879.67C7455.91 5042.76 7437.38 5253.62 7437.38 5509.2H7638.66ZM7691.11 4926.15C7724.75 4781.98 7780.48 4677.25 7853.12 4604.6L7710.8 4462.27C7605.08 4567.99 7534.9 4709.82 7495.1 4880.41L7691.11 4926.15ZM7855.13 4602.54C7927.77 4525.63 8031.82 4468.05 8174.68 4434.72L8128.94 4238.7C7957.03 4278.81 7814.52 4352.39 7708.79 4464.33L7855.13 4602.54ZM8177.74 4433.95C8323.25 4395.15 8520.74 4374.4 8773.46 4374.4V4173.12C8512.07 4173.12 8295.13 4194.33 8125.88 4239.47L8177.74 4433.95ZM8771.07 4374.37L9432.07 4390.11L9436.86 4188.88L8775.86 4173.15L8771.07 4374.37ZM9333.82 4289.5V4989.84H9535.1V4289.5H9333.82ZM9434.46 4889.2H9355.77V5090.48H9434.46V4889.2ZM9355.77 4889.2C9236.75 4889.2 9150.59 4891.64 9105.47 4898.08L9133.93 5097.34C9162.26 5093.29 9233.47 5090.48 9355.77 5090.48V4889.2ZM9114.67 4897.2C9048.46 4900.51 8982.84 4918.55 8932.18 4964.39C8880 5011.6 8857.64 5075.54 8853.96 5141.64L9054.94 5152.8C9056.51 5124.47 9064.31 5116.28 9067.22 5113.65C9071.64 5109.65 9086.02 5100.16 9124.73 5098.22L9114.67 4897.2ZM8855.18 5130.68C8848.32 5171.82 8845.94 5245.94 8845.94 5343.95H9047.22C9047.22 5242.61 9050.09 5185.58 9053.72 5163.77L8855.18 5130.68ZM8845.94 5343.95C8845.94 5423.92 8848.56 5489.19 8854.59 5537.42L9054.31 5512.45C9049.85 5476.75 9047.22 5421.36 9047.22 5343.95H8845.94ZM8856.81 5549.35C8869.84 5601.47 8890.85 5649.81 8923.08 5690.1L9080.25 5564.36C9070.52 5552.19 9060.04 5532.34 9052.09 5500.53L8856.81 5549.35ZM8919.77 5685.73C8965.74 5750.09 9033.74 5782.73 9109.69 5790.33L9129.71 5590.05C9100.74 5587.15 9090.05 5577.83 9083.56 5568.74L8919.77 5685.73ZM9105.47 5789.82C9184.19 5801.06 9267.68 5806.57 9355.77 5806.57V5605.28C9275.99 5605.28 9202.1 5600.3 9133.93 5590.56L9105.47 5789.82ZM9355.77 5806.57H9434.46V5605.28H9355.77V5806.57ZM9333.82 5705.93V6508.57H9535.1V5705.93H9333.82ZM9372.93 6428.93C9268.66 6509.5 9159.47 6560.08 9044.88 6583L9084.35 6780.37C9232.06 6750.83 9369.44 6686 9496 6588.2L9372.93 6428.93ZM9040.21 6584.05C8924.82 6612.9 8778.83 6628.26 8600.34 6628.26V6829.54C8789.08 6829.54 8952.6 6813.43 9089.03 6779.32L9040.21 6584.05ZM14703.7 3738.66L14687.8 3838.04L14690.9 3838.53L14694 3838.83L14703.7 3738.66ZM13790.9 3738.66H13690.3V3874.92L13820.5 3834.85L13790.9 3738.66ZM13790.9 2597.65L13792.3 2497.02L13690.3 2495.58V2597.65H13790.9ZM14947.7 2739.29H15048.3V2658.68L14969.6 2641.08L14947.7 2739.29ZM14947.7 3762.27L14938 3862.44L15048.3 3873.12V3762.27H14947.7ZM12760.1 6587.26L12721.6 6680.28L12760.1 6587.26ZM12225 6146.59L12311.5 6095.16L12310.9 6094.2L12310.3 6093.25L12225 6146.59ZM12020.4 5556.41L11920.4 5568.04L11920.5 5569.18L11920.7 5570.32L12020.4 5556.41ZM12020.4 3848.83L11920.4 3836.93L12020.4 3848.83ZM12185.6 3266.52L12096.1 3220.55L12095.8 3221.03L12095.6 3221.51L12185.6 3266.52ZM12634.2 2817.98L12681 2907.04L12681.4 2906.82L12681.9 2906.59L12634.2 2817.98ZM13460.4 2613.39H13561V2504.83L13452.8 2513.03L13460.4 2613.39ZM13476.1 5186.57L13375.9 5195.68L13376.1 5197.93L13376.4 5200.17L13476.1 5186.57ZM13562.7 5454.12L13479 5509.94L13480.5 5512.26L13482.2 5514.5L13562.7 5454.12ZM13759.4 5587.89L13729.4 5683.95L13730.2 5684.2L13731 5684.44L13759.4 5587.89ZM14711.6 5603.63L14699.8 5503.68L14698.2 5503.86L14696.7 5504.1L14711.6 5603.63ZM14979.1 5572.15H15079.8V5458.98L14967.4 5472.2L14979.1 5572.15ZM14979.1 6595.13L15002.9 6692.92L15079.8 6674.22V6595.13H14979.1ZM14719.6 3639.29C14580.5 3617.03 14385.3 3606.55 14137.1 3606.55V3807.83C14382.1 3807.83 14564.6 3818.33 14687.8 3838.04L14719.6 3639.29ZM14137.1 3606.55C13974 3606.55 13845.2 3616.66 13761.3 3642.47L13820.5 3834.85C13873 3818.7 13975.1 3807.83 14137.1 3807.83V3606.55ZM13891.5 3738.66V2597.65H13690.3V3738.66H13891.5ZM13789.5 2698.28C14154.4 2703.42 14533.1 2749.69 14925.7 2837.51L14969.6 2641.08C14564.8 2550.53 14172.3 2502.37 13792.3 2497.02L13789.5 2698.28ZM14847 2739.29V3762.27H15048.3V2739.29H14847ZM14957.4 3662.1L14713.4 3638.49L14694 3838.83L14938 3862.44L14957.4 3662.1ZM13735.8 6636.13C13333.2 6636.13 13022.7 6586.85 12798.5 6494.24L12721.6 6680.28C12980.1 6787.02 13320.1 6837.41 13735.8 6837.41V6636.13ZM12798.5 6494.24C12574 6401.52 12414.1 6267.74 12311.5 6095.16L12138.5 6198.03C12266.7 6413.65 12463.5 6573.65 12721.6 6680.28L12798.5 6494.24ZM12310.3 6093.25C12213.9 5939.05 12149.9 5756.18 12120 5542.5L11920.7 5570.32C11953.8 5807.81 12026.2 6018.39 12139.6 6199.93L12310.3 6093.25ZM12120.3 5544.79C12094.7 5324.64 12081.7 5035.16 12081.7 4675.08H11880.4C11880.4 5038.95 11893.5 5337.03 11920.4 5568.04L12120.3 5544.79ZM12081.7 4675.08C12081.7 4346.83 12094.7 4075.71 12120.3 3860.73L11920.4 3836.93C11893.6 4062.62 11880.4 4342.32 11880.4 4675.08H12081.7ZM12120.3 3860.73C12145.4 3649.87 12197.7 3467.32 12275.6 3311.53L12095.6 3221.51C12005.6 3401.47 11947.8 3607.12 11920.4 3836.93L12120.3 3860.73ZM12275.1 3312.49C12365 3137.42 12499.4 3002.66 12681 2907.04L12587.3 2728.92C12370.3 2843.15 12205.5 3007.41 12096.1 3220.55L12275.1 3312.49ZM12681.9 2906.59C12869.5 2805.57 13129.5 2739.38 13468 2713.74L13452.8 2513.03C13098.8 2539.85 12808 2610.06 12586.4 2729.37L12681.9 2906.59ZM13359.8 2613.39V4667.21H13561V2613.39H13359.8ZM13359.8 4667.21C13359.8 4898.72 13365 5075.56 13375.9 5195.68L13576.4 5177.46C13566.3 5066.75 13561 4897.35 13561 4667.21H13359.8ZM13376.4 5200.17C13393.2 5323.31 13425.2 5429.3 13479 5509.94L13646.4 5398.29C13616.3 5353.02 13590.5 5280.65 13575.9 5172.97L13376.4 5200.17ZM13482.2 5514.5C13543.5 5596.31 13627.8 5652.19 13729.4 5683.95L13789.4 5491.83C13723.2 5471.12 13676.3 5437.82 13643.2 5393.73L13482.2 5514.5ZM13731 5684.44C13833.8 5714.68 13970.9 5727.87 14137.1 5727.87V5526.59C13978.1 5526.59 13863.4 5513.56 13787.8 5491.34L13731 5684.44ZM14137.1 5727.87C14414.7 5727.87 14613.2 5720.15 14726.5 5703.15L14696.7 5504.1C14600.1 5518.58 14415.7 5526.59 14137.1 5526.59V5727.87ZM14723.3 5703.58L14990.9 5672.1L14967.4 5472.2L14699.8 5503.68L14723.3 5703.58ZM14878.5 5572.15V6595.13H15079.8V5572.15H14878.5ZM14955.3 6497.34C14575.7 6589.69 14169.3 6636.13 13735.8 6636.13V6837.41C14183.7 6837.41 14606.2 6789.42 15002.9 6692.92L14955.3 6497.34ZM17417.3 4273.76V4173.12H17316.7V4273.76H17417.3ZM17968.1 4273.76V4374.4H18068.8V4273.76H17968.1ZM17881.6 3707.19L17797.8 3763.01L17798.2 3763.61L17798.7 3764.2L17881.6 3707.19ZM17755.7 3620.63L17726.8 3717.02L17731.3 3718.38L17735.9 3719.31L17755.7 3620.63ZM17417.3 3597.02H17316.7V3697.66H17417.3V3597.02ZM17417.3 2597.65V2497.01H17316.7V2597.65H17417.3ZM18566.2 2707.82L18536.9 2804.1L18537.2 2804.18L18537.5 2804.27L18566.2 2707.82ZM19109.2 3069.79L19026.2 3126.81L19026.7 3127.55L19027.3 3128.29L19109.2 3069.79ZM19298 3636.36L19197.8 3645.48L19197.9 3646.6L19198 3647.73L19298 3636.36ZM19337.4 4989.84V5090.48H19438V4989.84H19337.4ZM17417.3 4989.84H17316.7V5090.48H17417.3V4989.84ZM16543.8 6618.74L16514.2 6714.93L16515.3 6715.26L16516.4 6715.57L16543.8 6618.74ZM15930.1 6225.28L16010 6164.15L16010 6164.1L16009.9 6164.05L15930.1 6225.28ZM15694 5642.97L15594.5 5658.44L15594.6 5658.61L15594.6 5658.78L15694 5642.97ZM15678.2 3778.01L15778.2 3789.9L15778.2 3789.77L15778.2 3789.63L15678.2 3778.01ZM15843.5 3203.57L15755.1 3155.37L15754.9 3155.79L15754.7 3156.21L15843.5 3203.57ZM16276.3 2802.24L16320.3 2892.74L16320.8 2892.5L16321.3 2892.26L16276.3 2802.24ZM17086.8 2613.39H17187.4V2504.71L17079.1 2513.04L17086.8 2613.39ZM17110.4 5375.43L17011.7 5395.16L17011.9 5395.84L17012 5396.51L17110.4 5375.43ZM17220.6 5540.68L17276.4 5456.94L17275.5 5456.34L17274.6 5455.77L17220.6 5540.68ZM17511.7 5611.5L17518 5511.05L17516.9 5510.98L17515.8 5510.94L17511.7 5611.5ZM18778.7 5603.63L18770.8 5503.29L18769.5 5503.39L18768.3 5503.52L18778.7 5603.63ZM19180 5572.15H19280.6V5463.31L19172.1 5471.82L19180 5572.15ZM19180 6587.26L19208.9 6683.66L19280.6 6662.14V6587.26H19180ZM18314.4 6713.16L18308.6 6612.69L18307.1 6612.78L18305.5 6612.91L18314.4 6713.16ZM17417.3 4374.4H17968.1V4173.12H17417.3V4374.4ZM18068.8 4273.76C18068.8 4124.17 18061.5 3997.95 18046 3896.58C18030.9 3798.06 18006.6 3711.35 17964.5 3650.17L17798.7 3764.2C17814.3 3786.96 17833.2 3836.64 17847 3926.98C17860.4 4014.47 17867.5 4129.56 17867.5 4273.76H18068.8ZM17965.3 3651.36C17920 3583.43 17855.8 3538.01 17775.4 3521.94L17735.9 3719.31C17760.5 3724.23 17780.2 3736.51 17797.8 3763.01L17965.3 3651.36ZM17784.6 3524.23C17718 3504.26 17630.3 3496.38 17527.5 3496.38V3697.66C17624 3697.66 17688.4 3705.52 17726.8 3717.02L17784.6 3524.23ZM17527.5 3496.38H17417.3V3697.66H17527.5V3496.38ZM17517.9 3597.02V2597.65H17316.7V3597.02H17517.9ZM17417.3 2698.29H17527.5V2497.01H17417.3V2698.29ZM17527.5 2698.29C17975.2 2698.29 18309.8 2734.97 18536.9 2804.1L18595.5 2611.54C18340 2533.77 17982.1 2497.01 17527.5 2497.01V2698.29ZM18537.5 2804.27C18767.9 2872.91 18927 2982.42 19026.2 3126.81L19192.1 3012.78C19060.5 2821.42 18857.6 2689.61 18594.9 2611.36L18537.5 2804.27ZM19027.3 3128.29C19119.2 3257.06 19178 3427.49 19197.8 3645.48L19398.2 3627.25C19376.1 3383.59 19308.9 3176.3 19191 3011.3L19027.3 3128.29ZM19198 3647.73C19223.6 3872.69 19236.7 4214.29 19236.7 4675.08H19438C19438 4212.56 19424.9 3861.69 19398 3625L19198 3647.73ZM19236.7 4675.08V4989.84H19438V4675.08H19236.7ZM19337.4 4889.2H17417.3V5090.48H19337.4V4889.2ZM17517.9 4989.84V4273.76H17316.7V4989.84H17517.9ZM17684.9 6636.13C17206.2 6636.13 16836.4 6596.94 16571.3 6521.9L16516.4 6715.57C16807.4 6797.91 17198.3 6837.41 17684.9 6837.41V6636.13ZM16573.4 6522.55C16315.2 6443.09 16130.6 6321.86 16010 6164.15L15850.1 6286.42C16002.3 6485.44 16226.9 6626.5 16514.2 6714.93L16573.4 6522.55ZM16009.9 6164.05C15901.1 6022.14 15827.9 5844.41 15793.4 5627.16L15594.6 5658.78C15633.5 5903.18 15717.7 6113.66 15850.2 6286.52L16009.9 6164.05ZM15793.4 5627.5C15757.9 5398.9 15739.5 5082.18 15739.5 4675.08H15538.3C15538.3 5086.36 15556.7 5414.91 15594.5 5658.44L15793.4 5627.5ZM15739.5 4675.08C15739.5 4299 15752.6 4004.5 15778.2 3789.9L15578.3 3766.11C15551.4 3992.18 15538.3 4295.73 15538.3 4675.08H15739.5ZM15778.2 3789.63C15803.4 3573.29 15855.7 3394.62 15932.3 3250.93L15754.7 3156.21C15663.5 3327.27 15605.6 3531.57 15578.3 3766.38L15778.2 3789.63ZM15931.9 3251.76C16015.3 3098.75 16143.2 2978.93 16320.3 2892.74L16232.3 2711.75C16021.2 2814.42 15860.5 2962.14 15755.1 3155.37L15931.9 3251.76ZM16321.3 2892.26C16504.5 2800.67 16760.3 2739.44 17094.5 2713.73L17079.1 2513.04C16731.3 2539.79 16446.8 2604.47 16231.3 2712.23L16321.3 2892.26ZM16986.2 2613.39V4989.84H17187.4V2613.39H16986.2ZM16986.2 4989.84C16986.2 5168.81 16993.9 5305.95 17011.7 5395.16L17209.1 5355.69C17195.5 5287.52 17187.4 5167.6 17187.4 4989.84H16986.2ZM17012 5396.51C17032.8 5493.46 17083.8 5572.89 17166.6 5625.58L17274.6 5455.77C17242 5435.01 17219.5 5404.27 17208.8 5354.34L17012 5396.51ZM17164.8 5624.41C17250.7 5681.68 17370 5706.55 17507.7 5712.06L17515.8 5510.94C17391.2 5505.95 17316.4 5483.6 17276.4 5456.94L17164.8 5624.41ZM17505.5 5711.94C17675.7 5722.58 17856.1 5727.87 18046.8 5727.87V5526.59C17859.8 5526.59 17683.6 5521.4 17518 5511.05L17505.5 5711.94ZM18046.8 5727.87C18383 5727.87 18631.3 5720.04 18789 5703.73L18768.3 5503.52C18621.7 5518.69 18382.2 5526.59 18046.8 5526.59V5727.87ZM18786.5 5703.96L19187.8 5672.48L19172.1 5471.82L18770.8 5503.29L18786.5 5703.96ZM19079.3 5572.15V6587.26H19280.6V5572.15H19079.3ZM19151.1 6490.86C18952.1 6550.54 18672.5 6591.89 18308.6 6612.69L18320.1 6813.64C18690.7 6792.47 18988.1 6749.88 19208.9 6683.66L19151.1 6490.86ZM18305.5 6612.91C18130.9 6628.32 17924.2 6636.13 17684.9 6636.13V6837.41C17928.2 6837.41 18141.1 6829.48 18323.2 6813.41L18305.5 6612.91ZM7443.15 7487.64V7387H7342.51V7487.64H7443.15ZM8029.12 7487.64H8129.76V7387H8029.12V7487.64ZM8029.12 9841.03V9941.67H8129.76V9841.03H8029.12ZM7443.15 9841.03H7342.51V9941.67H7443.15V9841.03ZM8355.36 8855.97L8455.83 8850.06L8455.79 8849.43L8455.75 8848.8L8355.36 8855.97ZM8339.53 8738.77L8435 8706.95L8434.07 8704.14L8432.97 8701.4L8339.53 8738.77ZM8295.18 8700.76L8266.26 8797.16L8270.8 8798.52L8275.44 8799.45L8295.18 8700.76ZM8162.15 8691.26H8061.51V8791.9H8162.15V8691.26ZM8162.15 8304.84L8099.28 8226.25L8061.51 8256.47V8304.84H8162.15ZM8868.48 8377.69L8780.81 8427.1L8781.18 8427.75L8781.55 8428.4L8868.48 8377.69ZM8928.66 8564.56L8829.04 8578.8L8829.07 8579L8829.1 8579.21L8928.66 8564.56ZM8944.5 9841.03V9941.67H9045.14V9841.03H8944.5ZM8358.53 9841.03H8257.89V9941.67H8358.53V9841.03ZM7443.15 7588.28H8029.12V7387H7443.15V7588.28ZM7928.48 7487.64V9841.03H8129.76V7487.64H7928.48ZM8029.12 9740.39H7443.15V9941.67H8029.12V9740.39ZM7543.79 9841.03V7487.64H7342.51V9841.03H7543.79ZM8459.17 9077.69C8459.17 8966.35 8458.15 8889.43 8455.83 8850.06L8254.9 8861.88C8256.8 8894.3 8257.89 8965.2 8257.89 9077.69H8459.17ZM8455.75 8848.8C8451.67 8791.74 8446 8739.94 8435 8706.95L8244.05 8770.6C8243.85 8770.01 8244.41 8771.62 8245.39 8776.53C8246.32 8781.16 8247.38 8787.49 8248.5 8795.8C8250.76 8812.48 8252.95 8834.75 8254.98 8863.14L8455.75 8848.8ZM8432.97 8701.4C8412.74 8650.83 8371.57 8613.41 8314.92 8602.08L8275.44 8799.45C8270.93 8798.55 8263.66 8795.89 8256.61 8789.84C8249.75 8783.97 8246.87 8778.13 8246.08 8776.15L8432.97 8701.4ZM8324.1 8604.37C8288.03 8593.54 8241.73 8590.62 8193.82 8590.62V8791.9C8238.83 8791.9 8260.1 8795.31 8266.26 8797.16L8324.1 8604.37ZM8193.82 8590.62H8162.15V8791.9H8193.82V8590.62ZM8262.79 8691.26V8304.84H8061.51V8691.26H8262.79ZM8225.02 8383.42C8288.11 8332.95 8372.19 8304.12 8485.23 8304.12V8102.84C8336.42 8102.84 8205.12 8141.58 8099.28 8226.25L8225.02 8383.42ZM8485.23 8304.12C8656.18 8304.12 8740.29 8355.21 8780.81 8427.1L8956.16 8328.27C8865.76 8167.89 8694.37 8102.84 8485.23 8102.84V8304.12ZM8781.55 8428.4C8803.05 8465.25 8819.84 8514.39 8829.04 8578.8L9028.29 8550.33C9016.38 8466.92 8993.04 8391.48 8955.42 8326.98L8781.55 8428.4ZM8829.1 8579.21C8838.7 8644.52 8843.86 8727.96 8843.86 8830.63H9045.14C9045.14 8722.14 9039.75 8628.2 9028.23 8549.92L8829.1 8579.21ZM8843.86 8830.63V9841.03H9045.14V8830.63H8843.86ZM8944.5 9740.39H8358.53V9941.67H8944.5V9740.39ZM8459.17 9841.03V9077.69H8257.89V9841.03H8459.17ZM10087.6 8672.26L10038.7 8760.23L10040.6 8761.29L10042.6 8762.27L10087.6 8672.26ZM9979.9 8650.08L9987.93 8549.76L9987.26 8549.71L9986.6 8549.67L9979.9 8650.08ZM9492.12 8659.59L9497.81 8760.07L9499.85 8759.95L9501.89 8759.75L9492.12 8659.59ZM9324.25 8669.09H9223.61V8775.59L9329.93 8769.57L9324.25 8669.09ZM9324.25 8257.33L9305.32 8158.48L9223.61 8174.13V8257.33H9324.25ZM10382.2 8238.32L10357.3 8335.83L10357.5 8335.9L10357.8 8335.96L10382.2 8238.32ZM10610.2 8358.68L10686 8292.41L10685.1 8291.4L10684.2 8290.42L10610.2 8358.68ZM10695.7 8551.89L10596.4 8568.01L10596.6 8569.31L10596.9 8570.6L10695.7 8551.89ZM10717.9 9841.03V9941.67H10818.5V9841.03H10717.9ZM10131.9 9841.03H10031.3V9941.67H10131.9V9841.03ZM9340.08 9742.84L9263.26 9807.85L9263.67 9808.35L9264.1 9808.83L9340.08 9742.84ZM9257.73 9128.37L9355.56 9151.98L9355.65 9151.61L9355.74 9151.23L9257.73 9128.37ZM9333.75 8979.5L9404.91 9050.66L9405.93 9049.64L9406.91 9048.6L9333.75 8979.5ZM9482.62 8900.31L9505.48 8998.32L9507.02 8997.96L9508.55 8997.55L9482.62 8900.31ZM9732.84 8874.97L9735.24 8774.36L9734.04 8774.33H9732.84V8874.97ZM9998.91 8881.31H10099.5V8783.03L10001.3 8780.69L9998.91 8881.31ZM9998.91 9163.21V9263.85H10099.5V9163.21H9998.91ZM9872.21 9166.37L9877.23 9266.89L9881.86 9266.66L9886.44 9266L9872.21 9166.37ZM9805.69 9226.56L9904.96 9243.1L9905.87 9237.65L9906.18 9232.14L9805.69 9226.56ZM9805.69 9378.59L9705.83 9391.07L9706.58 9397.1L9708.06 9403L9805.69 9378.59ZM9824.7 9419.77L9906.59 9361.27L9905 9359.04L9903.28 9356.9L9824.7 9419.77ZM9872.21 9445.11L9886.44 9345.48L9884.34 9345.18L9882.22 9344.97L9872.21 9445.11ZM9998.91 9451.44H10099.5V9350.8H9998.91V9451.44ZM9998.91 9774.52L10060.4 9854.15L10099.5 9823.94V9774.52H9998.91ZM9850.04 9844.2L9830.3 9745.51L9827.95 9745.98L9825.63 9746.57L9850.04 9844.2ZM10232.6 8840.13C10232.6 8784.99 10230.6 8737.91 10224.6 8704.93L10026.6 8740.94C10029 8754.41 10031.3 8785.46 10031.3 8840.13H10232.6ZM10224.6 8704.93C10214.7 8650.54 10182.1 8606.97 10132.6 8582.24L10042.6 8762.27C10040.8 8761.4 10036.5 8758.69 10032.4 8753.23C10028.3 8747.77 10026.9 8742.86 10026.6 8740.94L10224.6 8704.93ZM10136.5 8584.28C10096.3 8561.97 10040.1 8553.94 9987.93 8549.76L9971.88 8750.4C9995.79 8752.32 10013.6 8754.78 10026.1 8757.37C10039.9 8760.21 10042.2 8762.17 10038.7 8760.23L10136.5 8584.28ZM9986.6 8549.67C9950.94 8547.29 9878.78 8546.28 9774.02 8546.28V8747.56C9880.42 8747.56 9945.51 8748.66 9973.21 8750.5L9986.6 8549.67ZM9774.02 8546.28C9669.92 8546.28 9572.65 8550.61 9482.35 8559.42L9501.89 8759.75C9584.74 8751.67 9675.41 8747.56 9774.02 8747.56V8546.28ZM9486.43 8559.11L9318.56 8568.61L9329.93 8769.57L9497.81 8760.07L9486.43 8559.11ZM9424.89 8669.09V8257.33H9223.61V8669.09H9424.89ZM9343.17 8356.17C9534.64 8319.51 9742.56 8300.95 9967.23 8300.95V8099.67C9731.57 8099.67 9510.84 8119.13 9305.32 8158.48L9343.17 8356.17ZM9967.23 8300.95C10141.4 8300.95 10270 8313.55 10357.3 8335.83L10407.1 8140.81C10295.9 8112.42 10147.8 8099.67 9967.23 8099.67V8300.95ZM10357.8 8335.96C10447.4 8358.36 10503.2 8391.13 10536.3 8426.94L10684.2 8290.42C10615.9 8216.44 10519.7 8168.96 10406.6 8140.68L10357.8 8335.96ZM10534.5 8424.95C10564.4 8459.12 10586.2 8505.17 10596.4 8568.01L10795.1 8535.79C10779.9 8442.37 10744.7 8359.6 10686 8292.41L10534.5 8424.95ZM10596.9 8570.6C10609.9 8639.64 10617.3 8741.12 10617.3 8878.14H10818.5C10818.5 8736.42 10811.1 8620.41 10794.6 8533.19L10596.9 8570.6ZM10617.3 8878.14V9841.03H10818.5V8878.14H10617.3ZM10717.9 9740.39H10131.9V9941.67H10717.9V9740.39ZM10232.6 9841.03V8840.13H10031.3V9841.03H10232.6ZM9663.16 9762.56C9535.29 9762.56 9460.29 9727.78 9416.07 9676.86L9264.1 9808.83C9359.24 9918.39 9499.62 9963.85 9663.16 9963.85V9762.56ZM9416.91 9677.84C9368.9 9621.1 9336.2 9525.17 9336.2 9372.26H9134.92C9134.92 9548.75 9171.9 9699.88 9263.26 9807.85L9416.91 9677.84ZM9336.2 9372.26C9336.2 9274.66 9343.42 9202.26 9355.56 9151.98L9159.9 9104.75C9142.47 9176.94 9134.92 9267.13 9134.92 9372.26H9336.2ZM9355.74 9151.23C9367.44 9101.1 9385.55 9070.02 9404.91 9050.66L9262.58 8908.33C9210.15 8960.77 9177.59 9028.94 9159.72 9105.5L9355.74 9151.23ZM9406.91 9048.6C9426.27 9028.11 9456.67 9009.71 9505.48 8998.32L9459.75 8802.3C9381.87 8820.47 9313.02 8854.87 9260.58 8910.39L9406.91 9048.6ZM9508.55 8997.55C9560.03 8983.83 9633.71 8975.61 9732.84 8975.61V8774.33C9625.04 8774.33 9531.9 8783.01 9456.69 8803.07L9508.55 8997.55ZM9730.45 8975.58L9996.51 8981.92L10001.3 8780.69L9735.24 8774.36L9730.45 8975.58ZM9898.27 8881.31V9163.21H10099.5V8881.31H9898.27ZM9998.91 9062.57H9967.23V9263.85H9998.91V9062.57ZM9967.23 9062.57C9920.3 9062.57 9881.15 9063.43 9857.98 9066.74L9886.44 9266C9886.42 9266.01 9886.56 9265.98 9886.89 9265.95C9887.22 9265.91 9887.68 9265.86 9888.28 9265.8C9889.51 9265.68 9891.17 9265.54 9893.31 9265.4C9897.62 9265.1 9903.27 9264.82 9910.4 9264.58C9924.7 9264.11 9943.55 9263.85 9967.23 9263.85V9062.57ZM9867.18 9065.86C9832.31 9067.6 9790.59 9077.42 9756.38 9108.37C9720.66 9140.7 9707.31 9183.08 9705.21 9220.97L9906.18 9232.14C9906.2 9231.75 9906.09 9234.98 9903.89 9240.24C9901.52 9245.9 9897.43 9252.2 9891.43 9257.63C9879.39 9268.52 9869.87 9267.26 9877.23 9266.89L9867.18 9065.86ZM9706.42 9210.01C9702.7 9232.35 9701.89 9267.29 9701.89 9305.74H9903.17C9903.17 9286.41 9903.42 9271.24 9903.88 9259.88C9904.37 9247.46 9904.99 9242.92 9904.96 9243.1L9706.42 9210.01ZM9701.89 9305.74C9701.89 9338.69 9702.94 9367.92 9705.83 9391.07L9905.56 9366.11C9904.23 9355.48 9903.17 9336.14 9903.17 9305.74H9701.89ZM9708.06 9403C9714.82 9430.05 9726.42 9458.02 9746.11 9482.64L9903.28 9356.9C9904.7 9358.67 9905.14 9359.71 9904.99 9359.38C9904.82 9359.01 9904.14 9357.42 9903.33 9354.18L9708.06 9403ZM9742.8 9478.26C9773.1 9520.68 9817.59 9540.79 9862.19 9545.25L9882.22 9344.97C9882.39 9344.98 9886.27 9345.41 9891.85 9348.39C9897.8 9351.56 9902.96 9356.19 9906.59 9361.27L9742.8 9478.26ZM9857.98 9544.74C9892.82 9549.71 9929.29 9552.08 9967.23 9552.08V9350.8C9937.6 9350.8 9910.72 9348.95 9886.44 9345.48L9857.98 9544.74ZM9967.23 9552.08H9998.91V9350.8H9967.23V9552.08ZM9898.27 9451.44V9774.52H10099.5V9451.44H9898.27ZM9937.37 9694.88C9902.06 9722.17 9866.53 9738.27 9830.3 9745.51L9869.77 9942.89C9939.12 9929.02 10002.8 9898.66 10060.4 9854.15L9937.37 9694.88ZM9825.63 9746.57C9785.47 9756.61 9731.94 9762.56 9663.16 9762.56V9963.85C9742.19 9963.85 9813.25 9957.14 9874.45 9941.84L9825.63 9746.57ZM12119.9 8659.59L12104 8758.96L12107.1 8759.46L12110.2 8759.76L12119.9 8659.59ZM11752.4 8659.59H11651.8V8795.85L11782 8755.78L11752.4 8659.59ZM11752.4 8200.31L11753.9 8099.68L11651.8 8098.24V8200.31H11752.4ZM12218.1 8257.33H12318.7V8176.71L12240 8159.11L12218.1 8257.33ZM12218.1 8669.09L12208.4 8769.26L12318.7 8779.94V8669.09H12218.1ZM11337.5 9806.19L11299.1 9899.21L11337.5 9806.19ZM11122.1 9628.82L11208.6 9577.38L11208.1 9576.42L11207.5 9575.48L11122.1 9628.82ZM11039.8 9391.26L10939.8 9402.88L10939.9 9404.03L10940.1 9405.17L11039.8 9391.26ZM11039.8 8703.93L10939.8 8692.03L11039.8 8703.93ZM11106.3 8469.54L11016.8 8423.57L11016.5 8424.05L11016.3 8424.53L11106.3 8469.54ZM11286.8 8289L11333.7 8378.06L11334.1 8377.84L11334.5 8377.61L11286.8 8289ZM11619.4 8206.65H11720.1V8098.09L11611.8 8106.29L11619.4 8206.65ZM11625.7 9242.39L11525.5 9251.5L11525.7 9253.75L11526 9255.99L11625.7 9242.39ZM11660.6 9350.08L11576.8 9405.91L11578.4 9408.23L11580.1 9410.47L11660.6 9350.08ZM11739.8 9403.93L11709.8 9499.99L11710.6 9500.24L11711.4 9500.48L11739.8 9403.93ZM12123 9410.27L12111.3 9310.31L12109.7 9310.5L12108.1 9310.74L12123 9410.27ZM12230.7 9397.6H12331.4V9284.42L12219 9297.64L12230.7 9397.6ZM12230.7 9809.36L12254.5 9907.15L12331.4 9888.45V9809.36H12230.7ZM12135.8 8560.21C12075 8550.49 11992.7 8546.28 11891.8 8546.28V8747.56C11989.4 8747.56 12059.1 8751.79 12104 8758.96L12135.8 8560.21ZM11891.8 8546.28C11825.8 8546.28 11766 8550.12 11722.8 8563.4L11782 8755.78C11793.8 8752.16 11826.9 8747.56 11891.8 8747.56V8546.28ZM11853.1 8659.59V8200.31H11651.8V8659.59H11853.1ZM11751 8300.94C11893.4 8302.95 12041.7 8321.01 12196.1 8355.54L12240 8159.11C12073.4 8121.85 11911.3 8101.9 11753.9 8099.68L11751 8300.94ZM12117.4 8257.33V8669.09H12318.7V8257.33H12117.4ZM12227.7 8568.92L12129.6 8559.41L12110.2 8759.76L12208.4 8769.26L12227.7 8568.92ZM11730.3 9765.73C11572.1 9765.73 11456 9746.23 11375.9 9713.17L11299.1 9899.21C11413.3 9946.4 11559 9967.01 11730.3 9967.01V9765.73ZM11375.9 9713.17C11295.6 9680.01 11242.3 9634 11208.6 9577.38L11035.6 9680.25C11094.9 9779.9 11185.1 9852.14 11299.1 9899.21L11375.9 9713.17ZM11207.5 9575.48C11173.8 9521.57 11150.5 9456.24 11139.4 9377.35L10940.1 9405.17C10954.4 9507.87 10986 9600.92 11036.8 9682.16L11207.5 9575.48ZM11139.7 9379.64C11129.8 9294.26 11124.6 9180.31 11124.6 9036.51H10923.3C10923.3 9184.11 10928.6 9306.66 10939.8 9402.88L11139.7 9379.64ZM11124.6 9036.51C11124.6 8905.73 11129.8 8799.16 11139.7 8715.83L10939.8 8692.03C10928.6 8786.07 10923.3 8901.22 10923.3 9036.51H11124.6ZM11139.7 8715.83C11149.1 8636.62 11168.6 8570.04 11196.3 8514.55L11016.3 8424.53C10976.4 8504.19 10951.5 8593.87 10939.8 8692.03L11139.7 8715.83ZM11195.8 8515.52C11226.2 8456.42 11271.1 8410.99 11333.7 8378.06L11240 8199.94C11142 8251.48 11066.7 8326.41 11016.8 8423.57L11195.8 8515.52ZM11334.5 8377.61C11399.9 8342.41 11495.4 8316.97 11627 8307L11611.8 8106.29C11464.7 8117.44 11338.4 8146.9 11239.1 8200.39L11334.5 8377.61ZM11518.8 8206.65V9033.34H11720.1V8206.65H11518.8ZM11518.8 9033.34C11518.8 9126.94 11520.9 9200.34 11525.5 9251.5L11726 9233.28C11722.2 9191.53 11720.1 9125.57 11720.1 9033.34H11518.8ZM11526 9255.99C11533.4 9310.18 11548.2 9362.88 11576.8 9405.91L11744.3 9294.26C11739.2 9286.61 11730.7 9267.52 11725.5 9228.79L11526 9255.99ZM11580.1 9410.47C11613.2 9454.67 11658.3 9483.91 11709.8 9499.99L11769.8 9307.87C11753.7 9302.84 11746 9296.18 11741.1 9289.7L11580.1 9410.47ZM11711.4 9500.48C11760.9 9515.05 11822.8 9520.41 11891.8 9520.41V9319.13C11829.9 9319.13 11790.4 9313.93 11768.2 9307.38L11711.4 9500.48ZM11891.8 9520.41C12003.2 9520.41 12087.3 9517.38 12138 9509.79L12108.1 9310.74C12074.3 9315.81 12004.2 9319.13 11891.8 9319.13V9520.41ZM12134.8 9510.22L12242.5 9497.55L12219 9297.64L12111.3 9310.31L12134.8 9510.22ZM12130.1 9397.6V9809.36H12331.4V9397.6H12130.1ZM12206.9 9711.57C12059.2 9747.5 11900.4 9765.73 11730.3 9765.73V9967.01C11914.8 9967.01 12089.7 9947.23 12254.5 9907.15L12206.9 9711.57ZM12543.8 7487.64V7387H12443.2V7487.64H12543.8ZM13129.8 7487.64H13230.4V7387H13129.8V7487.64ZM13129.8 9841.03V9941.67H13230.4V9841.03H13129.8ZM12543.8 9841.03H12443.2V9941.67H12543.8V9841.03ZM13262.8 9378.59H13162.2V9405.2L13175.3 9428.33L13262.8 9378.59ZM13262.8 8707.1L13175.5 8657.11L13162.2 8680.33V8707.1H13262.8ZM13538.4 8225.65V8125.01H13480L13451 8175.66L13538.4 8225.65ZM14156 8225.65L14241.6 8278.67L14336.8 8125.01H14156V8225.65ZM13680.9 8992.17L13595.4 8939.14L13563.8 8990.05L13593.5 9042.06L13680.9 8992.17ZM14165.5 9841.03V9941.67H14338.9L14252.9 9791.14L14165.5 9841.03ZM13525.7 9841.03L13438.2 9890.77L13467.1 9941.67H13525.7V9841.03ZM12543.8 7588.28H13129.8V7387H12543.8V7588.28ZM13029.1 7487.64V9841.03H13230.4V7487.64H13029.1ZM13129.8 9740.39H12543.8V9941.67H13129.8V9740.39ZM12644.4 9841.03V7487.64H12443.2V9841.03H12644.4ZM13363.4 9378.59V8707.1H13162.2V9378.59H13363.4ZM13350.2 8757.09L13625.7 8275.64L13451 8175.66L13175.5 8657.11L13350.2 8757.09ZM13538.4 8326.29H14156V8125.01H13538.4V8326.29ZM14070.5 8172.63L13595.4 8939.14L13766.4 9045.19L14241.6 8278.67L14070.5 8172.63ZM13593.5 9042.06L14078.1 9890.93L14252.9 9791.14L13768.3 8942.27L13593.5 9042.06ZM14165.5 9740.39H13525.7V9941.67H14165.5V9740.39ZM13613.2 9791.3L13350.3 9328.85L13175.3 9428.33L13438.2 9890.77L13613.2 9791.3ZM14283.3 8989L14194.5 8941.55L14182.6 8963.79V8989H14283.3ZM14992.8 7661.85V7561.21H14932.4L14904 7614.4L14992.8 7661.85ZM15683.3 7661.85L15771.1 7711.05L15855 7561.21H15683.3V7661.85ZM14698.2 9419.77V9520.41H14757.2L14786 9468.96L14698.2 9419.77ZM14283.3 9419.77H14182.6V9520.41H14283.3V9419.77ZM15293.7 9419.77H15394.3V9319.13H15293.7V9419.77ZM14850.2 9419.77L14762.5 9370.45L14678.2 9520.41H14850.2V9419.77ZM15122.6 8935.15V8834.51H15063.7L15034.9 8885.84L15122.6 8935.15ZM15296.8 8935.15V9035.79H15356.5L15385.1 8983.48L15296.8 8935.15ZM15534.4 8501.22V8400.58H15474.7L15446.1 8452.89L15534.4 8501.22ZM15914.5 8501.22H16015.1V8400.58H15914.5V8501.22ZM15914.5 8935.15H15813.8V9035.79H15914.5V8935.15ZM16180.5 8935.15H16281.2V8834.51H16180.5V8935.15ZM16180.5 9419.77V9520.41H16281.2V9419.77H16180.5ZM15914.5 9419.77V9319.13H15813.8V9419.77H15914.5ZM15914.5 9841.03V9941.67H16015.1V9841.03H15914.5ZM15293.7 9841.03H15193V9941.67H15293.7V9841.03ZM14372 9036.45L15081.5 7709.3L14904 7614.4L14194.5 8941.55L14372 9036.45ZM14992.8 7762.49H15683.3V7561.21H14992.8V7762.49ZM15595.5 7612.65L14610.4 9370.57L14786 9468.96L15771.1 7711.05L15595.5 7612.65ZM14698.2 9319.13H14283.3V9520.41H14698.2V9319.13ZM14383.9 9419.77V8989H14182.6V9419.77H14383.9ZM15293.7 9319.13H14850.2V9520.41H15293.7V9319.13ZM14938 9469.08L15210.4 8984.47L15034.9 8885.84L14762.5 9370.45L14938 9469.08ZM15122.6 9035.79H15296.8V8834.51H15122.6V9035.79ZM15385.1 8983.48L15622.7 8549.54L15446.1 8452.89L15208.6 8886.82L15385.1 8983.48ZM15534.4 8601.86H15914.5V8400.58H15534.4V8601.86ZM15813.8 8501.22V8935.15H16015.1V8501.22H15813.8ZM15914.5 9035.79H16180.5V8834.51H15914.5V9035.79ZM16079.9 8935.15V9419.77H16281.2V8935.15H16079.9ZM16180.5 9319.13H15914.5V9520.41H16180.5V9319.13ZM15813.8 9419.77V9841.03H16015.1V9419.77H15813.8ZM15914.5 9740.39H15293.7V9941.67H15914.5V9740.39ZM15394.3 9841.03V9419.77H15193V9841.03H15394.3ZM16463.4 9324.75V9224.1H16362.7V9324.75H16463.4ZM17103.2 9324.75H17203.8V9224.1H17103.2V9324.75ZM17103.2 9841.03V9941.67H17203.8V9841.03H17103.2ZM16463.4 9841.03H16362.7V9941.67H16463.4V9841.03ZM16463.4 9425.39H17103.2V9224.1H16463.4V9425.39ZM17002.6 9324.75V9841.03H17203.8V9324.75H17002.6ZM17103.2 9740.39H16463.4V9941.67H17103.2V9740.39ZM16564 9841.03V9324.75H16362.7V9841.03H16564ZM18598.5 8390.36L18699 8386.63L18699 8386.1L18699 8385.57L18598.5 8390.36ZM18573.1 8203.48L18668 8169.98L18667.2 8167.55L18666.2 8165.16L18573.1 8203.48ZM18503.4 8136.96L18469.6 8231.74L18473.5 8233.14L18477.5 8234.21L18503.4 8136.96ZM18234.2 8127.46H18133.6V8237.67L18243.3 8227.69L18234.2 8127.46ZM18234.2 7639.68L18217.7 7540.41L18133.6 7554.42V7639.68H18234.2ZM18864.5 7693.53L18834.2 7789.49L18835 7789.74L18835.8 7789.97L18864.5 7693.53ZM19130.6 7874.07L19047.2 7930.37L19047.2 7930.39L19047.2 7930.41L19130.6 7874.07ZM19228.8 8181.31L19328.9 8171.29L19228.8 8181.31ZM19232 9270.9L19131.7 9261.95L19131.6 9262.84L19131.6 9263.73L19232 9270.9ZM19162.3 9568.64L19253.1 9611.9L19253.2 9611.81L19253.2 9611.72L19162.3 9568.64ZM18965.9 9771.35L19011.8 9860.92L19012.2 9860.71L19012.6 9860.5L18965.9 9771.35ZM18601.6 9856.87H18501V9966L18609.8 9957.18L18601.6 9856.87ZM17838.3 9812.53L17808 9908.5L17809 9908.81L17810 9909.1L17838.3 9812.53ZM17572.2 9625.65L17656.3 9570.3L17655.9 9569.8L17655.6 9569.31L17572.2 9625.65ZM17474 9321.58L17373.9 9331.76L17474 9321.58ZM17467.7 8231.99L17367.5 8223.04L17367.4 8223.92L17367.3 8224.82L17467.7 8231.99ZM17540.5 7934.25L17449.7 7890.98L17449.6 7891.07L17449.6 7891.17L17540.5 7934.25ZM17733.8 7734.7L17779.6 7824.28L17780.1 7824.07L17780.5 7823.85L17733.8 7734.7ZM18101.2 7646.01H18201.8V7536.88L18093 7545.7L18101.2 7646.01ZM18104.3 9109.36L18003.8 9113.09L18003.8 9113.74L18003.8 9114.39L18104.3 9109.36ZM18132.9 9299.41L18037.9 9332.65L18038.8 9335.21L18039.8 9337.72L18132.9 9299.41ZM18199.4 9369.09L18165.5 9463.87L18168.6 9464.96L18171.7 9465.86L18199.4 9369.09ZM18468.6 9375.42H18569.2V9252.66L18448.9 9276.74L18468.6 9375.42ZM18468.6 9863.21L18485.1 9962.48L18569.2 9948.46V9863.21H18468.6ZM18702.3 8751.44C18702.3 8568.14 18701.2 8445.85 18699 8386.63L18497.9 8394.08C18499.9 8448.89 18501 8567.32 18501 8751.44H18702.3ZM18699 8385.57C18694.8 8296.62 18686.1 8221.13 18668 8169.98L18478.2 8236.97C18485.5 8257.63 18493.7 8306.72 18497.9 8395.14L18699 8385.57ZM18666.2 8165.16C18641.9 8106.25 18597.2 8057.8 18529.4 8039.72L18477.5 8234.21C18477.7 8234.26 18477.3 8234.17 18476.6 8233.77C18475.9 8233.36 18475.3 8232.93 18475.1 8232.73C18474.7 8232.28 18476.9 8234.2 18480.1 8241.8L18666.2 8165.16ZM18537.3 8042.19C18489.9 8025.26 18423.7 8020.49 18351.4 8020.49V8221.77C18422.7 8221.77 18457.9 8227.56 18469.6 8231.74L18537.3 8042.19ZM18351.4 8020.49C18315.6 8020.49 18273.3 8022.85 18225.1 8027.23L18243.3 8227.69C18288 8223.63 18323.8 8221.77 18351.4 8221.77V8020.49ZM18334.9 8127.46V7639.68H18133.6V8127.46H18334.9ZM18250.8 7738.95C18255 7738.25 18267.2 7737.15 18291.2 7737.15V7535.87C18264.6 7535.87 18238.8 7536.88 18217.7 7540.41L18250.8 7738.95ZM18291.2 7737.15H18351.4V7535.87H18291.2V7737.15ZM18351.4 7737.15C18569.4 7737.15 18728.4 7756.07 18834.2 7789.49L18894.8 7597.56C18759.9 7554.96 18576.9 7535.87 18351.4 7535.87V7737.15ZM18835.8 7789.97C18939.2 7820.81 19006 7869.38 19047.2 7930.37L19214 7817.76C19141.2 7709.83 19030.6 7638.04 18893.3 7597.08L18835.8 7789.97ZM19047.2 7930.41C19088 7990.73 19117.1 8075.65 19128.6 8191.32L19328.9 8171.29C19315.2 8033.57 19278.8 7913.66 19214 7817.72L19047.2 7930.41ZM19128.6 8191.32C19140.8 8312.85 19147.1 8498.81 19147.1 8751.44H19348.4C19348.4 8497.29 19342.1 8303.16 19328.9 8171.29L19128.6 8191.32ZM19147.1 8751.44C19147.1 8978.69 19141.9 9148.26 19131.7 9261.95L19332.2 9279.85C19343.2 9157.04 19348.4 8980.3 19348.4 8751.44H19147.1ZM19131.6 9263.73C19123.7 9373.46 19102.5 9459.68 19071.3 9525.55L19253.2 9611.72C19298 9517.11 19323.3 9404.84 19332.3 9278.07L19131.6 9263.73ZM19071.4 9525.37C19038.7 9593.98 18989 9645.64 18919.2 9682.2L19012.6 9860.5C19120.2 9804.15 19201.3 9720.67 19253.1 9611.9L19071.4 9525.37ZM18920 9681.78C18850.2 9717.54 18743.7 9744.38 18593.5 9756.56L18609.8 9957.18C18772.1 9944.02 18908.4 9913.85 19011.8 9860.92L18920 9681.78ZM18702.3 9856.87V8751.44H18501V9856.87H18702.3ZM18351.4 9765.73C18135.5 9765.73 17975.6 9747.9 17866.6 9715.95L17810 9909.1C17945.9 9948.95 18128.1 9967.01 18351.4 9967.01V9765.73ZM17868.6 9716.56C17765.3 9683.95 17698 9633.62 17656.3 9570.3L17488.2 9681C17560.5 9790.83 17670.5 9865.09 17808 9908.5L17868.6 9716.56ZM17655.6 9569.31C17614.7 9508.72 17585.7 9424.67 17574.2 9311.4L17373.9 9331.76C17387.7 9467.66 17424.2 9586.32 17488.8 9681.99L17655.6 9569.31ZM17574.2 9311.4C17562 9192.12 17555.7 9006.28 17555.7 8751.44H17354.4C17354.4 9007.62 17360.7 9201.87 17373.9 9331.76L17574.2 9311.4ZM17555.7 8751.44C17555.7 8524.03 17559.9 8353.75 17568.1 8239.16L17367.3 8224.82C17358.6 8346.72 17354.4 8522.75 17354.4 8751.44H17555.7ZM17567.9 8240.94C17577.8 8130.78 17600 8043.89 17631.5 7977.33L17449.6 7891.17C17405.1 7985.09 17378.7 8096.7 17367.5 8223.04L17567.9 8240.94ZM17631.4 7977.52C17664.2 7908.57 17712.9 7858.44 17779.6 7824.28L17687.9 7645.13C17581.4 7699.65 17501.3 7782.55 17449.7 7890.98L17631.4 7977.52ZM17780.5 7823.85C17852.3 7786.2 17959.7 7758.45 18109.3 7746.33L18093 7545.7C17930.1 7558.91 17792.6 7590.29 17687.1 7645.55L17780.5 7823.85ZM18000.5 7646.01V8751.44H18201.8V7646.01H18000.5ZM18000.5 8751.44C18000.5 8932.65 18001.6 9053.87 18003.8 9113.09L18204.9 9105.64C18202.9 9050.82 18201.8 8933.43 18201.8 8751.44H18000.5ZM18003.8 9114.39C18008.2 9201.53 18018.2 9276.52 18037.9 9332.65L18227.8 9266.16C18217.9 9237.83 18209 9186.12 18204.9 9104.33L18003.8 9114.39ZM18039.8 9337.72C18062.7 9393.25 18103 9441.52 18165.5 9463.87L18233.2 9274.31C18233.2 9274.29 18233.4 9274.36 18233.6 9274.53C18233.9 9274.7 18233.8 9274.7 18233.4 9274.26C18232.5 9273.36 18229.5 9269.83 18225.9 9261.09L18039.8 9337.72ZM18171.7 9465.86C18216.1 9478.54 18279.4 9482.4 18351.4 9482.4V9281.12C18279.9 9281.12 18241.8 9276.53 18227 9272.32L18171.7 9465.86ZM18351.4 9482.4H18414.8V9281.12H18351.4V9482.4ZM18414.8 9482.4C18438.4 9482.4 18463.4 9479.1 18488.3 9474.11L18448.9 9276.74C18431.6 9280.19 18420.7 9281.12 18414.8 9281.12V9482.4ZM18368 9375.42V9863.21H18569.2V9375.42H18368ZM18452.1 9763.93C18447.9 9764.63 18435.6 9765.73 18411.6 9765.73V9967.01C18438.2 9967.01 18464 9966 18485.1 9962.48L18452.1 9763.93ZM18411.6 9765.73H18351.4V9967.01H18411.6V9765.73Z" fill="#130D23" fill-opacity="0.05" mask="url(#path-1-outside-1_282_4)"/>
<path d="M4308.13 6246.47L5707.8 7296.23L5707.8 9044.63L4392.93 9833.55L74.6401 7242.57L74.5562 5497.52L4392.84 2906.55L5707.71 3695.47L5707.71 5438.45L4315.13 6161.56L4244.1 6198.45L4308.13 6246.47Z" fill="#CECECE" stroke="#CECECE" stroke-width="104.606"/>
<path d="M24.3212 7271.07L4392.92 4649.9L5758.11 5469.02L2590.88 7271.07L5758.12 9073.12L4392.93 9892.23L24.3212 7271.07Z" fill="white"/>
<path d="M4392.92 4708.58L5658.38 5467.86L2565.99 7227.33L2489.12 7271.07L2565.99 7314.8L5658.39 9074.27L4392.93 9833.55L122.126 7271.07L4392.92 4708.58Z" stroke="#130D23" stroke-opacity="0.05" stroke-width="104.606"/>
<path d="M32743.8 5469.03L28375.2 2847.86L27010 3666.98L27010 5469.02L28429.7 6206.22L27009.9 7271.07L27009.9 9073.12L28375.1 9892.23L32743.7 7271.07L32743.8 5469.03Z" fill="#CECECE"/>
<path d="M28459.9 6246.47L27060.2 7296.23L27060.2 9044.63L28375.1 9833.55L32693.4 7242.57L32693.5 5497.52L28375.2 2906.55L27060.3 3695.47L27060.3 5438.45L28452.9 6161.56L28523.9 6198.45L28459.9 6246.47Z" stroke="#130D23" stroke-opacity="0.05" stroke-width="104.606"/>
<path d="M32743.7 7271.06L28375.1 4649.9L27009.9 5469.02L30177.1 7271.06L27009.9 9073.12L28375.1 9892.23L32743.7 7271.06Z" fill="white"/>
<path d="M28375.1 4708.58L27109.6 5467.86L30202 7227.33L30278.9 7271.06L30202 7314.8L27109.6 9074.27L28375.1 9833.55L32645.9 7271.06L28375.1 4708.58Z" stroke="#130D23" stroke-opacity="0.05" stroke-width="104.606"/>
<path d="M20423.4 9393.11L24082.1 1529.61H26266.4V3386.27L22607.7 11249.8H20423.4V9393.11Z" fill="#CECECE"/>
<path d="M20473.7 11199.4V9404.24L24114.2 1579.93H26216.1V3375.13L22575.6 11199.4H20473.7Z" stroke="#130D23" stroke-opacity="0.05" stroke-width="104.606"/>
<path d="M20423.6 11249.7H22607.9L26266.6 3386.21H24082.3L20423.6 11249.7Z" fill="white"/>
<path d="M26187.7 3436.53L22575.8 11199.4H20502.5L24114.4 3436.53H26187.7Z" stroke="#130D23" stroke-opacity="0.05" stroke-width="104.606"/>
<rect x="24082.1" y="1529.61" width="2184.31" height="1856.66" fill="#CECECE"/>
<rect x="24134.4" y="1581.91" width="2079.7" height="1752.05" stroke="#130D23" stroke-opacity="0.05" stroke-width="104.606"/>
</svg>
